<?xml version="1.0" standalone="no"?>
<!DOCTYPE svg PUBLIC "-//W3C//DTD SVG 20010904//EN"
 "http://www.w3.org/TR/2001/REC-SVG-20010904/DTD/svg10.dtd">
<svg version="1.0" xmlns="http://www.w3.org/2000/svg"
 width="1079.000000pt" height="1079.000000pt" viewBox="0 0 1079.000000 1079.000000"
 preserveAspectRatio="xMidYMid meet">
<metadata>
Created by potrace 1.14, written by Peter Selinger 2001-2017
</metadata>
<g transform="translate(0.000000,1079.000000) scale(0.100000,-0.100000)"
fill="#000000" stroke="none">
<path d="M5683 10068 c-14 -4 -30 -5 -35 -2 -4 3 -8 1 -8 -5 0 -10 -39 -27
-53 -23 -5 1 -6 -1 -4 -5 9 -14 -21 -46 -35 -37 -10 6 -10 4 1 -9 7 -9 9 -17
4 -17 -5 0 -9 -8 -10 -17 -1 -10 -4 -60 -6 -112 -4 -62 -10 -97 -19 -102 -11
-7 -11 -9 0 -9 8 0 10 -5 5 -12 -4 -7 -8 -22 -9 -33 -1 -29 -35 -96 -44 -90
-5 3 -13 -2 -18 -11 -11 -20 -100 -28 -121 -11 -12 9 -13 9 -7 0 5 -9 0 -13
-14 -13 -14 0 -19 4 -14 13 6 9 4 9 -7 1 -8 -6 -36 -12 -64 -13 -27 -1 -63 -4
-80 -7 -16 -2 -44 -6 -62 -7 -18 -2 -35 -6 -39 -9 -3 -4 -17 -3 -31 3 -15 5
-22 5 -18 0 3 -6 -3 -10 -12 -10 -10 0 -40 -3 -68 -6 -27 -4 -58 -6 -67 -6
-10 0 -18 -6 -18 -12 0 -7 -4 -6 -10 3 -6 10 -10 11 -10 3 0 -7 -5 -13 -11
-13 -5 0 -7 6 -4 13 4 6 1 5 -7 -3 -7 -8 -24 -16 -38 -18 -14 -1 -35 -3 -47
-5 -13 -1 -23 -6 -23 -11 0 -5 -6 -3 -14 3 -10 8 -16 8 -25 -3 -6 -7 -21 -13
-34 -12 -12 1 -28 -5 -35 -14 -8 -8 -11 -9 -7 -2 3 6 1 12 -4 12 -6 0 -11 -4
-11 -9 0 -9 -42 -20 -87 -24 -13 -1 -23 -6 -23 -10 0 -5 -4 -6 -9 -2 -5 3 -12
1 -16 -5 -4 -6 -10 -8 -15 -5 -5 3 -11 1 -15 -5 -4 -6 -11 -8 -16 -5 -5 4 -9
2 -9 -3 0 -5 -6 -9 -12 -10 -50 -6 -61 -10 -69 -23 -8 -13 -14 -5 -9 16 1 6
-2 6 -7 2 -4 -5 -8 -13 -8 -19 0 -6 -8 -13 -17 -15 -10 -1 -25 -4 -34 -6 -8
-2 -19 -8 -22 -13 -4 -5 -16 -11 -27 -12 -11 -2 -22 -8 -25 -13 -3 -5 -15 -10
-27 -12 -12 -1 -29 -9 -39 -17 -16 -13 -17 -13 -9 0 5 8 -4 5 -19 -8 -16 -12
-32 -19 -37 -16 -5 3 -9 0 -9 -5 0 -6 -7 -11 -15 -11 -8 0 -15 -4 -15 -9 0 -6
-9 -8 -20 -6 -11 2 -18 0 -15 -4 5 -9 -23 -26 -37 -23 -5 1 -8 -2 -8 -8 0 -5
-6 -10 -14 -10 -7 0 -19 -7 -26 -15 -7 -9 -19 -14 -26 -11 -7 3 -15 -2 -18
-11 -4 -9 -13 -13 -22 -9 -8 3 -13 2 -11 -2 7 -11 -17 -29 -35 -26 -12 1 -15
-3 -10 -14 5 -15 4 -15 -12 -3 -15 12 -17 12 -14 0 2 -8 -4 -13 -14 -13 -10 1
-17 -1 -16 -5 2 -18 -3 -32 -10 -27 -5 3 -18 -3 -28 -12 -10 -10 -41 -33 -69
-51 -27 -19 -60 -45 -71 -57 -12 -13 -25 -24 -29 -24 -9 0 -29 -17 -72 -63
-15 -15 -33 -25 -40 -22 -8 2 -11 0 -8 -5 3 -6 1 -10 -5 -10 -6 0 -8 -4 -5
-10 3 -5 2 -10 -2 -10 -11 0 -133 -118 -133 -128 0 -5 -11 -15 -25 -22 -14 -7
-23 -15 -21 -18 6 -6 -32 -42 -45 -42 -5 0 -8 -4 -5 -9 3 -5 -1 -12 -10 -15
-9 -4 -14 -9 -11 -12 7 -7 -35 -50 -46 -46 -5 1 -6 -2 -2 -8 3 -5 1 -10 -5
-10 -6 0 -9 -4 -5 -9 3 -5 -4 -12 -15 -16 -11 -4 -18 -11 -15 -16 4 -5 1 -9
-5 -9 -6 0 -8 -4 -5 -10 3 -5 2 -10 -4 -10 -5 0 -19 -16 -31 -35 -12 -19 -27
-32 -32 -29 -6 4 -8 3 -5 -3 9 -14 -22 -55 -35 -47 -6 4 -8 3 -5 -3 4 -5 -3
-20 -14 -31 -11 -12 -17 -22 -14 -22 3 0 -10 -16 -29 -35 -20 -19 -32 -35 -29
-35 4 0 -2 -7 -13 -15 -10 -8 -15 -15 -11 -15 4 0 2 -6 -5 -14 -7 -8 -17 -11
-22 -8 -5 3 -6 -1 -1 -8 5 -8 1 -18 -10 -27 -11 -7 -15 -13 -11 -13 5 0 -3 -9
-18 -21 -14 -11 -23 -25 -20 -31 4 -7 2 -8 -4 -4 -7 4 -12 1 -12 -9 0 -9 -4
-13 -10 -10 -5 3 -10 -1 -10 -10 0 -8 -7 -18 -15 -21 -8 -4 -13 -10 -10 -14 3
-5 -5 -16 -17 -24 -12 -9 -19 -16 -15 -16 5 0 1 -7 -8 -16 -9 -9 -23 -27 -32
-40 -8 -13 -19 -22 -23 -19 -5 3 -12 0 -16 -6 -5 -8 -3 -9 6 -4 8 5 11 3 8 -6
-3 -8 -12 -13 -21 -13 -9 1 -13 -4 -10 -11 2 -8 -3 -22 -12 -32 -8 -10 -27
-33 -41 -51 -23 -28 -29 -31 -43 -20 -14 12 -14 11 -2 -4 13 -18 5 -33 -53
-100 -8 -9 -11 -20 -8 -24 4 -5 -1 -2 -11 5 -15 12 -17 12 -12 -1 4 -9 -1 -23
-10 -32 -9 -9 -14 -16 -10 -16 3 0 -9 -14 -27 -31 -18 -18 -26 -28 -18 -24 10
6 9 1 -4 -13 -10 -12 -23 -19 -29 -15 -6 4 -8 0 -4 -11 5 -12 -1 -20 -18 -28
-13 -6 -22 -14 -20 -19 3 -4 -10 -22 -27 -40 -18 -18 -32 -36 -31 -41 2 -4 -5
-8 -14 -8 -9 0 -14 -3 -10 -6 3 -3 -7 -20 -23 -38 -17 -17 -30 -35 -30 -39 0
-5 -4 -5 -10 -2 -5 3 -10 -1 -10 -9 0 -9 -5 -16 -11 -16 -5 0 -7 5 -3 12 4 7
3 8 -5 4 -6 -4 -9 -11 -6 -15 8 -14 -55 -57 -77 -53 -5 1 -8 -3 -8 -8 0 -6 -4
-10 -10 -10 -5 0 -7 8 -4 18 5 15 4 15 -5 1 -7 -11 -24 -15 -60 -13 -30 1 -51
-3 -51 -9 0 -6 -7 -2 -15 9 -15 18 -15 18 -8 0 4 -12 3 -17 -4 -13 -6 4 -21
-2 -34 -14 -12 -11 -29 -17 -36 -14 -8 2 -12 1 -9 -4 3 -4 -3 -17 -14 -28 -10
-12 -16 -24 -13 -27 4 -3 1 -6 -6 -6 -9 0 -28 -31 -36 -62 -2 -5 -4 -9 -5 -10
-6 -6 -7 -119 -1 -123 4 -2 6 -20 6 -39 -1 -20 3 -36 9 -36 6 0 5 -4 -3 -9 -9
-6 -10 -10 -2 -16 9 -5 9 -11 -1 -23 -10 -12 -10 -14 0 -8 9 6 11 -2 8 -29 -3
-21 -7 -40 -10 -43 -3 -3 -1 -11 5 -19 6 -7 8 -13 4 -13 -4 0 -1 -8 6 -17 12
-14 12 -15 0 -9 -9 6 -8 0 4 -17 9 -15 14 -30 11 -35 -3 -4 4 -15 15 -22 10
-8 19 -18 19 -21 0 -4 25 -33 55 -64 30 -31 55 -60 55 -65 0 -6 7 -10 16 -10
14 0 15 -3 3 -17 -7 -10 -10 -15 -5 -11 11 9 42 -21 50 -50 5 -13 12 -20 19
-16 7 4 9 4 5 -1 -4 -4 -3 -14 3 -22 6 -7 8 -13 5 -13 -4 0 0 -7 8 -16 9 -8
14 -20 11 -25 -4 -5 -2 -9 2 -9 5 0 10 -19 12 -42 2 -35 0 -40 -13 -29 -11 9
-16 9 -22 0 -4 -7 -3 -9 3 -6 18 11 35 -24 23 -48 -5 -10 -8 -25 -9 -51 -1
-17 -5 -23 -13 -18 -10 5 -10 4 -1 -6 13 -14 6 -43 -8 -34 -5 3 -5 -5 0 -18 6
-17 4 -26 -8 -35 -12 -9 -13 -12 -2 -13 11 0 11 -3 1 -15 -6 -8 -9 -19 -5 -25
3 -5 2 -10 -4 -10 -6 0 -7 -7 -4 -17 4 -9 2 -14 -3 -10 -6 3 -9 -7 -8 -24 1
-16 -2 -29 -6 -29 -5 0 -7 -9 -5 -21 3 -16 0 -19 -12 -15 -12 5 -13 4 -5 -7 7
-8 9 -17 6 -20 -4 -4 -8 -17 -9 -29 -1 -13 -3 -27 -4 -32 0 -4 -8 -5 -17 -2
-13 5 -14 3 -6 -7 12 -14 12 -57 0 -57 -3 0 -6 -8 -6 -17 1 -16 -8 -72 -17
-113 -2 -8 -4 -21 -4 -28 -1 -7 -6 -10 -13 -6 -7 5 -8 3 -3 -6 11 -18 13 -60
3 -53 -5 2 -6 -10 -3 -27 3 -17 2 -29 -3 -26 -5 3 -6 -9 -4 -26 3 -22 1 -29
-7 -23 -9 5 -9 2 0 -13 10 -17 10 -23 0 -36 -9 -10 -9 -16 -3 -16 13 0 4 -31
-12 -42 -8 -6 -8 -8 0 -8 6 0 10 -29 10 -79 0 -52 -4 -77 -11 -73 -6 3 -5 0 1
-9 6 -8 11 -47 10 -87 -1 -42 3 -72 9 -72 6 0 3 -5 -5 -10 -8 -5 -10 -10 -4
-10 6 0 11 -15 11 -32 3 -94 8 -168 14 -168 3 0 6 -7 6 -15 0 -8 -5 -15 -11
-15 -6 0 -5 -4 3 -9 8 -5 11 -16 8 -24 -3 -8 0 -20 6 -26 8 -8 8 -11 -2 -11
-10 0 -10 -4 -3 -13 6 -6 9 -27 8 -45 -1 -18 1 -35 6 -38 4 -3 8 -19 8 -35 0
-22 4 -28 13 -23 9 6 9 5 0 -7 -10 -12 -10 -18 0 -29 9 -10 9 -11 0 -6 -9 5
-8 -1 2 -20 7 -14 12 -35 10 -45 -2 -11 1 -19 7 -19 6 0 8 -9 5 -20 -3 -10 0
-21 6 -23 5 -1 11 -11 13 -20 1 -11 -2 -14 -9 -10 -9 5 -9 3 0 -8 6 -8 13 -23
15 -34 1 -11 5 -22 8 -25 3 -3 10 -20 17 -37 8 -25 8 -33 0 -33 -8 0 -9 -3 -1
-8 9 -6 23 -32 29 -54 2 -5 4 -10 5 -13 1 -3 3 -8 4 -12 1 -5 5 -13 9 -20 4
-6 8 -23 9 -37 1 -14 8 -28 15 -30 7 -3 10 -12 7 -21 -3 -8 -1 -15 5 -15 6 0
10 -3 9 -7 -1 -9 17 -60 32 -85 6 -10 10 -27 10 -38 0 -14 4 -19 12 -14 6 4 8
3 5 -3 -3 -5 3 -26 14 -47 11 -20 17 -41 14 -46 -4 -6 -1 -10 4 -10 6 0 11 -7
11 -15 0 -8 5 -15 11 -15 5 0 7 -4 4 -10 -3 -5 -2 -10 4 -10 6 0 13 -16 17
-35 3 -19 9 -35 13 -35 8 0 36 -67 30 -72 -2 -2 6 -14 19 -28 24 -26 30 -46
10 -34 -7 4 0 -5 15 -19 15 -15 25 -32 22 -37 -3 -6 -1 -10 4 -10 6 0 11 -6
11 -14 0 -8 6 -21 13 -28 14 -14 16 -17 24 -48 3 -11 9 -20 14 -20 5 0 9 -7 9
-15 0 -8 5 -15 10 -15 6 0 10 -5 10 -10 0 -6 51 -60 113 -121 61 -61 111 -115
109 -120 -1 -5 3 -9 9 -9 15 0 59 -42 59 -58 0 -6 4 -11 8 -10 11 4 62 -48 62
-63 0 -7 3 -10 6 -6 9 9 59 -45 56 -61 -2 -8 1 -11 7 -8 12 8 43 -22 36 -35
-4 -5 0 -6 7 -4 19 7 62 -40 52 -56 -5 -9 -2 -11 8 -6 10 3 27 -6 46 -26 38
-42 71 -69 102 -84 35 -18 64 -37 71 -47 4 -5 11 -6 16 -3 5 3 15 -3 23 -13 8
-10 17 -17 22 -14 4 3 8 0 8 -6 0 -6 4 -9 9 -5 5 3 17 -3 27 -12 10 -10 20
-18 23 -18 3 0 5 -2 4 -5 -1 -3 11 -6 25 -7 15 0 28 -6 30 -12 2 -6 12 -11 23
-11 10 0 19 -4 19 -10 0 -5 6 -10 13 -10 25 0 77 -31 71 -42 -4 -7 -2 -8 5 -4
13 8 71 -14 71 -27 0 -5 5 -5 10 -2 6 3 10 1 10 -4 0 -6 3 -10 8 -9 7 1 20 -3
75 -26 15 -6 25 -16 23 -23 -3 -7 1 -10 9 -7 14 6 75 -16 75 -26 0 -3 10 -6
22 -7 11 -1 24 -7 28 -13 4 -7 11 -12 16 -13 5 -1 8 -6 6 -11 -2 -5 3 -4 11 2
19 16 30 3 14 -17 -10 -14 -10 -14 4 -3 13 10 22 10 48 -1 17 -7 28 -17 24
-22 -5 -4 -3 -5 3 -2 18 11 86 -21 77 -36 -4 -8 -1 -7 10 2 14 11 18 11 23 -2
3 -9 12 -13 19 -11 7 3 16 0 20 -5 3 -6 11 -9 16 -6 5 4 9 1 9 -4 0 -6 3 -10
8 -9 6 1 34 -8 82 -29 8 -3 20 -7 25 -8 6 0 9 -6 8 -11 -1 -6 11 -10 28 -9 16
1 29 -2 29 -7 0 -4 7 -8 15 -8 8 0 19 -9 25 -20 9 -16 15 -18 30 -10 14 7 20
7 20 0 0 -5 11 -10 25 -10 14 0 25 -4 25 -10 0 -5 7 -10 15 -10 26 0 65 -23
58 -34 -4 -6 0 -5 9 2 11 9 18 10 23 2 3 -5 17 -10 31 -10 13 0 24 -4 24 -10
0 -5 12 -10 26 -10 21 0 25 -4 19 -17 -5 -14 -3 -15 6 -6 8 8 19 9 36 2 14 -5
29 -7 34 -3 5 3 9 2 9 -3 0 -4 11 -13 25 -20 19 -8 23 -8 18 0 -5 9 -3 9 8 0
8 -6 17 -12 22 -12 4 -1 10 -2 15 -2 4 -1 15 -1 25 0 9 1 17 -3 17 -10 0 -7 3
-9 7 -6 3 4 15 -1 25 -10 18 -16 18 -16 12 0 -5 13 -2 16 10 11 9 -3 14 -9 12
-13 -2 -3 8 -6 22 -7 55 -1 108 -8 125 -16 12 -6 17 -5 17 4 0 9 3 9 10 -2 5
-8 10 -10 10 -5 0 6 5 3 10 -5 8 -12 10 -12 10 -1 0 9 10 4 27 -13 14 -14 23
-29 20 -32 -3 -4 1 -13 9 -21 8 -8 12 -18 9 -23 -3 -5 -1 -11 5 -15 14 -9 2
-27 -13 -19 -7 3 -4 -1 7 -10 10 -8 15 -19 11 -25 -3 -6 -3 -11 2 -11 9 0 8
-124 -2 -139 -3 -6 -2 -11 4 -11 5 0 8 -9 6 -20 -2 -13 2 -20 11 -20 8 0 14
-4 14 -9 0 -16 74 -33 150 -34 14 0 28 -5 32 -11 5 -7 8 -7 8 -1 0 6 11 11 25
11 15 1 22 -2 18 -9 -4 -6 -1 -7 8 -1 21 13 42 14 56 2 9 -7 14 -6 19 6 4 10
13 14 24 11 11 -3 20 1 24 11 4 10 12 14 22 10 14 -5 15 -4 5 8 -10 12 -8 16
8 21 12 4 18 12 14 21 -3 7 -1 14 4 14 9 0 8 193 -1 216 -3 8 3 18 12 23 16
10 16 10 0 11 -23 0 -23 9 0 27 9 8 11 12 5 8 -7 -3 -13 -2 -13 4 0 15 30 27
63 26 15 0 27 4 27 10 0 5 4 4 9 -4 7 -10 13 -11 31 -1 18 10 21 10 14 -2 -6
-11 -5 -11 9 1 14 11 20 11 34 0 11 -10 14 -10 9 -1 -5 8 2 12 26 14 47 2 51
3 66 11 7 5 12 4 12 -2 0 -6 5 -11 11 -11 5 0 8 3 6 8 -8 12 55 12 70 0 10 -8
12 -7 8 4 -5 12 2 15 30 13 20 -1 38 2 41 7 10 15 26 8 20 -10 -6 -16 -5 -16
7 0 8 10 17 15 20 11 4 -3 7 -1 7 7 0 10 3 10 14 1 11 -9 16 -9 21 -1 4 7 16
10 26 7 11 -3 19 -2 19 3 0 4 15 7 34 6 19 -1 32 2 30 5 -8 13 24 17 36 6 8
-7 11 -8 7 -1 -4 6 8 15 28 22 19 5 33 6 29 1 -3 -5 10 0 28 11 19 11 44 21
56 23 12 2 25 6 28 10 4 4 16 7 26 7 10 0 18 5 18 10 0 6 7 10 15 10 8 0 30 9
50 20 20 11 42 20 50 20 8 0 15 3 15 8 0 4 20 16 45 27 25 11 45 24 45 28 0 5
5 5 10 2 6 -3 13 1 16 9 3 9 10 13 15 10 5 -3 6 -10 3 -16 -4 -7 -2 -8 5 -4 6
4 9 11 6 16 -5 8 23 25 38 22 4 -1 7 2 7 7 0 10 39 27 53 23 4 -1 7 2 7 7 0
12 81 52 92 45 4 -3 8 -1 8 4 0 12 70 55 77 48 3 -3 14 4 25 14 13 12 31 17
49 15 16 -2 27 0 24 5 -3 5 -12 7 -20 3 -27 -10 -16 5 14 20 22 11 32 12 41 3
8 -8 9 -6 4 8 -5 13 -4 17 4 12 7 -4 12 -3 12 3 0 6 7 7 17 4 10 -4 14 -2 10
4 -3 5 9 16 28 23 19 8 35 16 35 20 0 3 20 14 45 24 25 11 50 25 56 32 6 7 18
10 26 7 12 -5 14 -3 8 7 -6 10 -3 12 13 8 12 -4 20 -2 16 3 -8 13 10 11 26 -3
12 -11 12 -10 2 4 -11 14 -8 18 19 32 17 9 36 13 42 9 5 -3 7 -2 4 3 -3 6 17
22 44 37 27 14 47 21 44 14 -4 -7 3 -1 15 13 12 14 18 18 14 10 -5 -10 0 -9
14 4 12 11 22 15 22 10 0 -5 5 -1 11 9 6 9 15 15 20 12 5 -4 6 -11 3 -17 -4
-7 -2 -8 4 -4 6 4 8 14 5 24 -3 9 -3 14 2 10 4 -4 14 0 22 8 12 11 18 12 29 3
12 -10 13 -9 8 6 -5 12 -4 16 4 11 6 -3 18 4 26 16 9 12 16 17 16 10 0 -11 19
1 55 35 8 7 20 13 28 13 9 0 17 6 20 13 3 9 8 8 23 -3 17 -14 18 -14 6 2 -9
11 -10 18 -2 23 5 3 10 3 10 -2 0 -4 7 3 16 15 9 13 21 21 27 19 7 -2 20 7 31
20 10 13 25 22 32 19 8 -3 14 1 14 10 0 12 6 15 21 11 16 -4 18 -3 9 8 -9 11
-7 15 13 20 14 4 28 13 31 22 4 10 13 12 28 8 19 -5 20 -4 8 5 -12 9 -13 12
-1 17 7 3 20 14 29 24 9 10 19 16 24 13 4 -3 8 3 8 12 0 10 3 15 6 11 8 -7 34
17 34 32 0 6 7 7 17 4 9 -4 14 -2 11 3 -6 11 28 45 36 36 3 -3 6 2 6 10 0 15
26 33 42 30 4 -1 4 6 1 15 -4 10 -2 14 4 10 5 -3 16 5 23 18 7 13 16 23 19 21
6 -3 39 28 44 42 1 4 5 6 10 4 4 -1 7 3 7 9 0 5 5 7 12 3 7 -5 8 -3 4 5 -5 7
3 24 19 41 14 16 37 40 51 55 13 14 24 29 24 34 0 4 10 17 22 28 13 11 29 29
37 41 8 11 18 19 22 16 4 -2 11 1 15 7 4 8 3 9 -4 5 -20 -12 -14 2 23 51 19
27 39 53 43 58 24 33 62 96 62 103 0 5 9 17 20 27 11 10 18 20 16 24 -6 10 21
30 30 23 5 -4 2 1 -5 11 -9 12 -10 17 -2 17 6 0 16 10 21 23 5 12 18 35 29 51
11 17 18 33 16 37 -3 4 2 12 10 19 8 7 15 19 15 26 0 8 8 14 18 14 12 0 14 2
4 8 -10 7 -8 14 6 33 11 13 22 37 26 52 4 15 10 25 15 23 5 -3 8 2 7 12 0 9 4
16 10 15 6 -1 10 8 9 20 -2 25 26 78 37 71 4 -3 5 1 3 8 -3 7 6 38 21 68 14
29 28 63 30 74 2 11 9 23 15 26 6 4 10 11 10 16 -1 17 12 49 28 68 9 11 11 16
4 13 -14 -8 6 54 21 64 5 4 5 12 2 18 -4 6 -2 11 4 11 7 0 9 7 6 16 -5 12 -2
15 11 10 10 -4 14 -4 10 0 -4 4 -1 14 6 23 11 14 10 14 -6 2 -16 -12 -17 -12
-11 5 4 10 10 24 13 29 3 6 6 16 8 24 1 8 8 18 15 22 10 7 10 9 -2 9 -11 0
-12 3 -3 8 10 6 20 40 22 79 1 7 8 10 19 6 15 -5 14 -4 -2 9 -17 14 -17 15 -2
21 13 5 15 11 6 26 -7 13 -7 22 0 26 5 3 10 17 10 30 0 13 4 26 10 30 5 3 7
12 3 20 -3 9 1 15 8 15 11 0 11 3 -1 10 -11 7 -11 10 -2 10 7 0 10 5 6 11 -3
6 0 15 7 20 12 7 12 9 0 9 -9 0 -10 4 -4 13 6 6 9 29 9 50 -1 27 2 36 12 32 8
-3 10 0 5 8 -15 24 -10 34 16 35 14 0 32 0 38 1 15 1 87 67 89 81 1 6 3 12 4
15 1 3 4 10 5 15 1 6 4 13 5 18 1 4 2 10 1 15 0 4 4 7 10 7 5 0 8 4 4 9 -3 5
-1 12 5 16 6 4 8 11 5 16 -4 5 -2 9 4 9 5 0 8 9 6 20 -2 11 0 18 6 15 5 -4 10
4 10 17 2 39 6 62 15 82 5 14 4 17 -5 12 -8 -5 -11 -3 -10 5 3 22 -12 52 -41
79 -38 36 -69 60 -77 60 -13 0 -83 79 -83 95 0 9 -4 13 -10 10 -5 -3 -11 1
-11 9 -2 19 -4 26 -13 48 -4 9 -5 22 -1 28 3 5 0 10 -7 10 -9 0 -9 3 2 10 13
8 13 10 1 10 -11 0 -10 4 5 16 10 8 14 13 7 10 -8 -5 -11 4 -10 28 1 19 6 32
10 29 4 -2 6 7 3 22 -4 22 -2 26 12 21 15 -5 15 -5 -1 8 -13 10 -15 20 -9 37
4 13 7 40 6 59 0 19 4 41 10 49 7 10 8 13 0 9 -11 -7 -11 62 1 81 3 6 1 11 -6
11 -10 0 -10 3 -1 12 7 7 8 17 2 29 -7 12 -6 20 0 24 7 4 7 12 2 18 -5 7 -9
28 -10 47 -2 19 -5 44 -9 55 -5 18 -4 19 12 5 17 -14 17 -14 5 7 -8 12 -19 19
-25 16 -5 -3 -5 0 2 7 8 9 9 20 2 38 -7 18 -6 28 3 34 8 5 9 8 2 8 -13 0 -20
22 -30 95 -3 28 -11 56 -16 63 -6 6 -8 12 -5 12 3 0 1 15 -4 33 -6 17 -12 43
-15 57 -3 13 -11 31 -17 39 -10 12 -9 13 2 7 8 -6 7 0 -4 18 -10 14 -14 26
-10 26 4 0 2 7 -5 15 -7 9 -10 18 -7 21 3 4 -1 13 -9 21 -8 8 -12 19 -9 24 4
5 1 9 -5 9 -7 0 -10 6 -7 14 3 8 1 16 -4 18 -6 2 -12 15 -12 30 -1 14 -5 24
-8 22 -7 -4 -29 40 -29 57 0 6 -7 17 -15 26 -8 8 -12 19 -9 25 4 6 3 8 -3 5
-5 -3 -17 12 -27 33 -10 22 -22 40 -27 40 -6 0 -7 5 -4 10 4 6 11 7 17 4 7 -4
8 -2 4 4 -4 6 -13 9 -21 5 -10 -3 -15 2 -15 17 0 11 -4 18 -10 15 -5 -3 -10 1
-10 10 0 9 -9 25 -20 37 -10 12 -17 25 -14 30 3 4 -2 8 -12 8 -13 0 -14 3 -4
15 10 12 9 15 -4 15 -10 0 -14 5 -11 10 3 6 2 10 -4 10 -5 0 -19 17 -32 38
-29 50 -66 108 -99 157 -15 22 -25 46 -22 54 3 8 0 11 -7 7 -10 -7 -16 7 -11
29 1 5 -1 7 -5 3 -4 -4 -13 -1 -20 5 -10 9 -10 16 -2 27 6 8 8 12 3 8 -10 -8
-28 8 -46 42 -7 13 -17 29 -21 34 -18 23 -97 146 -102 160 -4 9 -12 16 -19 16
-9 0 -8 3 2 10 13 8 12 10 -4 10 -12 0 -16 5 -12 15 3 8 2 15 -2 15 -4 0 -20
17 -36 37 -16 20 -23 33 -15 28 8 -5 1 4 -14 20 -15 16 -26 34 -23 41 3 8 0
16 -6 20 -7 5 -8 2 -3 -6 5 -9 4 -11 -3 -6 -7 4 -12 12 -12 17 0 5 -11 22 -24
36 -14 15 -23 30 -21 34 3 4 -2 9 -10 13 -8 3 -15 12 -15 20 0 7 -7 16 -15 20
-8 3 -15 12 -15 20 0 8 -4 16 -8 18 -4 2 -17 17 -29 34 -18 24 -20 34 -10 44
10 12 9 12 -4 2 -16 -12 -39 1 -39 23 0 5 -9 16 -21 23 -12 8 -18 19 -15 28 3
9 -2 17 -12 21 -26 10 -53 45 -47 60 2 8 0 11 -5 8 -6 -3 -10 -2 -10 4 0 5 -9
13 -20 16 -11 4 -18 11 -15 16 4 5 -1 12 -9 15 -9 3 -16 10 -16 15 0 4 -27 35
-60 69 -33 34 -60 63 -60 65 0 2 -34 38 -75 80 -41 42 -75 80 -75 86 0 6 -5 7
-10 4 -6 -3 -13 1 -16 9 -3 9 -13 16 -21 16 -8 0 -12 4 -9 9 3 5 -10 19 -29
32 -19 13 -38 32 -41 42 -3 9 -10 14 -16 11 -7 -5 -9 -1 -5 9 4 12 2 14 -10
10 -12 -5 -15 -2 -10 10 4 10 2 14 -6 12 -7 -3 -31 12 -53 33 -66 59 -83 72
-97 72 -8 0 -7 4 3 10 13 8 13 10 -2 10 -17 0 -98 50 -82 50 5 0 -5 7 -22 16
-18 8 -41 24 -52 34 -11 10 -23 16 -28 12 -4 -4 -4 2 0 12 5 16 4 17 -9 6 -14
-12 -20 -7 -16 14 1 5 -5 6 -13 3 -9 -4 -20 1 -25 11 -8 14 -11 14 -11 2 0
-12 -3 -11 -11 3 -6 9 -14 15 -20 12 -5 -4 -12 1 -15 9 -4 9 -18 16 -34 16
-15 0 -30 7 -34 15 -3 8 -12 12 -21 9 -8 -3 -15 -1 -15 5 0 6 -11 11 -25 11
-14 0 -25 4 -25 8 0 4 -12 9 -26 10 -14 1 -31 5 -37 9 -13 8 -19 10 -43 12 -9
0 -12 6 -8 13 4 6 3 8 -3 5 -13 -8 -116 26 -109 36 3 4 1 3 -6 -2 -7 -7 -21
-5 -39 5 -16 8 -32 15 -36 15 -5 1 -12 3 -18 5 -5 1 -19 4 -30 7 -11 2 -19 9
-17 17 3 11 0 11 -12 1 -9 -8 -16 -8 -20 -2 -4 6 -14 7 -23 4 -10 -4 -14 -2
-10 4 4 6 -9 10 -30 11 -20 1 -39 5 -42 9 -3 5 -17 10 -31 12 -14 1 -28 8 -32
15 -5 7 -8 6 -8 -4 0 -9 -3 -11 -8 -5 -4 6 -16 17 -26 25 -16 12 -18 12 -11 1
6 -11 4 -13 -9 -8 -10 4 -22 7 -27 7 -5 0 -9 5 -9 11 0 5 5 7 12 3 7 -5 8 -3
3 5 -5 9 -10 10 -18 2 -15 -15 -30 -14 -21 1 5 8 2 9 -10 5 -10 -4 -19 -1 -22
8 -4 8 -10 12 -15 9 -5 -3 -9 -1 -9 5 0 5 6 12 13 15 6 2 1 4 -13 3 -15 -1
-24 3 -22 11 1 6 -1 11 -5 11 -21 -3 -33 2 -33 16 0 8 -4 15 -9 15 -15 0 -39
62 -34 89 3 14 6 35 7 46 1 11 4 25 7 30 3 6 5 34 3 63 -5 81 -8 100 -16 96
-4 -3 -10 7 -14 21 -3 14 -10 25 -16 25 -5 0 -6 5 -3 10 3 6 1 10 -5 10 -6 0
-8 6 -4 13 4 6 4 9 -1 5 -4 -4 -22 4 -40 17 -17 14 -37 25 -43 25 -7 0 -12 4
-12 8 0 8 -23 13 -77 15 -18 1 -33 4 -33 7 0 3 -11 6 -25 6 -14 1 -25 -2 -25
-8 0 -5 -5 -6 -11 -3 -17 11 -99 11 -99 0 0 -7 -3 -7 -8 0 -8 12 -70 13 -109
3z m955 -938 c10 -11 12 -12 6 -1 -5 11 -3 13 9 8 10 -4 17 -1 18 6 0 7 4 3 9
-8 5 -11 9 -15 9 -8 1 11 41 14 41 3 0 -3 8 -7 18 -8 9 -1 26 -4 37 -6 11 -2
24 -5 28 -5 5 -1 6 -5 3 -10 -4 -5 4 -7 16 -3 14 3 19 1 14 -6 -5 -8 -2 -10 8
-6 9 3 16 1 16 -5 0 -6 7 -8 15 -5 18 7 20 -7 3 -26 -10 -11 -9 -11 6 0 15 12
20 12 23 2 3 -6 9 -10 14 -6 5 3 28 -10 51 -28 23 -18 39 -27 35 -21 -6 9 -3
11 7 7 9 -3 13 -10 10 -15 -5 -8 9 -13 29 -10 4 0 7 -3 7 -9 0 -5 10 -10 23
-10 18 0 19 -2 7 -10 -12 -8 -9 -10 13 -10 15 0 27 -4 27 -10 0 -5 7 -10 15
-10 8 0 15 -5 15 -11 0 -5 5 -7 10 -4 6 3 10 1 10 -4 0 -6 4 -11 10 -11 10 0
71 -38 106 -66 12 -10 23 -16 25 -14 2 2 17 -8 33 -23 16 -15 34 -24 40 -20 6
3 8 3 4 -2 -7 -7 32 -45 46 -45 7 0 20 -11 89 -74 20 -19 37 -32 37 -29 0 2 7
-2 15 -11 8 -8 15 -20 15 -26 0 -6 5 -8 10 -5 6 3 10 1 10 -5 0 -6 5 -8 10 -5
9 5 14 -7 11 -27 0 -4 8 -10 19 -13 11 -4 20 -11 20 -16 0 -5 7 -9 17 -9 9 0
13 -3 10 -6 -3 -4 7 -19 23 -34 17 -16 30 -32 30 -38 0 -5 7 -13 16 -16 9 -3
14 -13 11 -21 -4 -9 -1 -12 8 -9 7 3 18 -3 24 -14 6 -11 18 -28 27 -36 13 -14
14 -19 3 -34 -11 -14 -11 -15 1 -4 19 16 30 15 30 -4 0 -9 -5 -12 -12 -8 -7 4
-8 3 -4 -5 6 -9 11 -9 22 0 11 9 14 8 14 -5 0 -9 5 -16 11 -16 6 0 9 -7 5 -15
-3 -9 0 -15 9 -15 8 0 15 -4 15 -9 0 -5 6 -16 13 -23 31 -32 56 -71 51 -79 -3
-5 2 -9 11 -9 9 0 14 -4 11 -8 -3 -5 4 -14 14 -22 10 -8 17 -17 14 -22 -3 -4
0 -8 6 -8 6 0 9 -4 6 -9 -7 -11 -25 -9 -45 3 -10 7 -12 6 -6 -4 6 -9 4 -12 -7
-8 -19 8 -123 -45 -123 -63 -1 -8 -6 -13 -13 -12 -6 2 -9 -4 -6 -12 4 -8 2
-15 -4 -15 -5 0 -13 -11 -16 -25 -4 -14 -11 -23 -15 -20 -5 3 -7 -4 -4 -15 3
-12 0 -20 -6 -20 -7 0 -9 -5 -6 -10 4 -6 1 -17 -5 -25 -7 -8 -9 -15 -4 -15 4
0 -1 -7 -12 -15 -10 -8 -14 -15 -7 -15 7 0 10 -7 7 -15 -4 -10 -10 -12 -18 -6
-8 6 -11 1 -13 -17 0 -14 -9 -32 -19 -39 -10 -7 -15 -13 -11 -13 4 0 -1 -9
-12 -21 -12 -13 -24 -18 -33 -13 -10 6 -11 5 -1 -7 11 -13 6 -20 -28 -45 -22
-16 -47 -35 -55 -42 -7 -7 -19 -10 -25 -6 -8 5 -9 3 -4 -6 6 -10 4 -12 -7 -7
-9 3 -21 0 -27 -6 -6 -6 -11 -8 -11 -4 0 4 -9 3 -20 -3 -15 -8 -20 -8 -21 2 0
11 -2 11 -6 0 -4 -10 -8 -10 -19 -1 -8 6 -11 16 -7 22 3 6 1 7 -6 3 -9 -6 -9
-11 -1 -21 9 -11 7 -14 -9 -12 -12 1 -21 6 -21 11 0 6 -5 5 -11 -1 -7 -7 -18
-8 -28 -3 -9 4 -35 14 -58 21 -24 7 -43 16 -43 21 0 4 -7 8 -15 8 -9 0 -18 7
-21 15 -4 8 -11 12 -17 8 -6 -4 -8 0 -4 9 3 10 0 15 -11 14 -9 0 -16 5 -15 11
2 7 -3 12 -10 10 -6 -1 -12 5 -12 13 0 8 -8 18 -17 22 -16 6 -23 26 -19 51 0
4 -4 7 -11 7 -6 0 -9 3 -5 6 3 4 -1 13 -9 21 -8 8 -12 19 -9 24 4 5 1 9 -6 9
-8 0 -8 4 1 15 10 12 9 16 -4 21 -13 5 -14 9 -5 21 10 11 9 13 -2 11 -8 -2
-13 3 -12 10 2 6 -2 12 -7 12 -6 0 -10 5 -10 11 0 20 -27 38 -54 36 -31 -2
-86 -51 -86 -76 0 -9 -6 -23 -12 -30 -11 -11 -10 -12 2 -6 13 8 13 7 1 -8 -11
-14 -11 -17 0 -17 10 0 10 -3 1 -12 -9 -9 -9 -15 1 -27 10 -12 9 -13 -3 -6
-12 6 -13 5 -2 -6 6 -7 12 -23 12 -35 0 -12 7 -34 14 -50 8 -15 13 -31 10 -36
-3 -4 0 -8 5 -8 6 0 11 -9 11 -19 0 -11 5 -21 11 -23 5 -2 11 -20 12 -40 1
-20 7 -36 12 -35 6 1 9 -6 9 -15 -1 -10 3 -18 8 -18 6 0 8 -7 4 -15 -3 -8 -2
-15 3 -15 4 0 8 -6 9 -12 1 -7 4 -35 7 -62 4 -35 2 -52 -7 -57 -9 -6 -9 -9 -1
-9 6 0 11 -9 10 -20 -1 -11 -5 -20 -9 -20 -4 0 -8 -11 -8 -24 0 -14 -5 -28
-10 -31 -6 -4 -8 -10 -5 -15 3 -4 -2 -11 -11 -14 -8 -3 -13 -10 -10 -15 8 -12
-19 -33 -29 -23 -5 4 -5 -1 -2 -10 4 -12 -1 -22 -18 -30 -13 -7 -24 -17 -24
-23 -1 -5 -5 -10 -11 -10 -5 0 -15 -7 -22 -15 -7 -9 -23 -24 -36 -35 -20 -16
-25 -17 -33 -5 -8 12 -9 11 -7 -5 2 -12 -2 -19 -9 -17 -7 1 -13 -3 -13 -8 0
-6 -11 -15 -25 -20 -14 -5 -25 -14 -25 -19 0 -5 -13 -14 -30 -20 -16 -5 -30
-15 -30 -21 0 -6 -4 -9 -8 -6 -5 3 -18 -3 -29 -14 -12 -10 -24 -16 -27 -13 -3
4 -6 0 -6 -7 0 -7 -3 -11 -6 -7 -3 3 -16 -3 -27 -14 -12 -11 -27 -17 -35 -14
-7 2 -10 1 -7 -4 3 -5 1 -12 -5 -16 -5 -3 -10 0 -11 7 0 7 -5 2 -10 -11 -7
-17 -15 -22 -29 -18 -11 3 -18 2 -16 -2 6 -10 -30 -41 -38 -34 -3 4 -6 1 -6
-5 0 -7 -7 -12 -15 -12 -8 0 -15 -5 -15 -12 0 -6 -3 -9 -6 -5 -4 3 -13 -1 -21
-9 -8 -8 -19 -11 -25 -8 -7 4 -8 2 -4 -4 4 -7 1 -12 -9 -12 -9 0 -13 -4 -10
-10 6 -9 -10 -14 -42 -13 -6 0 -9 -5 -7 -12 3 -7 -6 -21 -21 -32 -14 -10 -49
-40 -77 -68 -28 -27 -55 -49 -60 -47 -4 1 -7 -4 -6 -10 2 -8 -7 -13 -25 -12
-24 1 -30 -9 -6 -12 5 -1 12 -2 15 -3 3 0 -8 -15 -25 -32 -17 -17 -31 -37 -31
-45 0 -9 -4 -12 -10 -9 -5 3 -10 -2 -10 -12 0 -10 -8 -30 -18 -45 l-17 -26
-40 18 c-22 11 -35 20 -30 20 6 0 3 5 -5 10 -11 7 -11 10 -2 10 7 0 11 4 8 8
-3 5 1 20 9 35 8 15 11 27 7 28 -4 0 2 4 13 9 l20 9 -20 1 c-20 1 -20 1 -1 15
11 8 14 15 7 15 -7 0 -9 5 -6 10 4 6 10 8 13 6 4 -2 7 11 6 30 -1 19 2 34 8
34 5 0 6 5 3 10 -3 6 0 10 7 10 9 0 9 3 -2 10 -12 7 -12 10 -1 10 7 0 11 6 7
15 -3 8 -2 15 3 15 5 0 11 15 15 33 3 17 8 41 10 52 3 11 6 28 8 37 2 9 13 27
24 40 11 13 12 17 3 10 -13 -9 -16 -9 -16 3 0 8 3 15 7 15 3 0 6 8 6 18 1 29
8 46 24 60 9 9 10 11 2 7 -10 -5 -13 -2 -10 11 2 11 11 18 19 16 11 -3 12 -1
2 9 -19 19 -16 42 3 35 14 -5 15 -4 5 8 -9 11 -10 20 -1 35 8 16 8 21 -2 21
-10 0 -10 2 1 9 7 5 10 14 7 20 -4 6 -3 11 2 11 5 0 8 16 7 36 -1 21 4 38 11
41 6 2 9 13 6 25 -4 15 -2 19 7 13 10 -6 11 -3 2 13 -8 14 -8 23 -1 27 6 4 10
16 8 28 -2 15 2 21 11 19 11 -2 12 0 3 11 -7 8 -8 17 -4 21 4 4 7 13 7 19 1 7
7 11 14 9 7 -1 10 2 6 8 -3 6 -11 7 -17 4 -6 -4 -8 1 -3 16 4 12 8 28 9 34 1
6 5 16 8 22 4 6 5 21 3 33 -3 17 0 21 11 17 12 -4 12 -2 4 14 -7 13 -7 21 0
25 8 5 7 11 -1 21 -9 11 -8 15 2 19 8 3 14 19 13 38 0 38 5 59 15 52 4 -2 5 9
3 26 -2 16 2 37 9 46 12 14 12 16 0 8 -10 -6 -12 -4 -6 5 8 13 17 65 18 108 1
12 4 22 8 22 3 0 5 11 4 25 -2 14 1 25 7 25 6 0 4 7 -3 17 -12 15 -12 16 5 10
15 -6 17 -5 8 6 -13 15 -6 105 9 124 7 7 6 14 -2 18 -8 6 -7 10 2 16 10 6 11
9 2 9 -7 0 -13 5 -13 11 0 6 7 9 15 5 12 -4 13 -2 2 14 -9 16 -9 24 1 41 8 13
9 18 2 14 -17 -11 -8 48 10 63 12 10 12 12 1 10 -9 -2 -15 7 -16 25 -1 15 1
27 5 27 4 0 6 22 4 50 -1 35 1 48 9 43 7 -4 7 0 -1 9 -9 11 -10 18 -2 23 6 3
7 11 4 17 -9 14 -11 68 -3 68 3 0 4 12 1 26 -3 16 1 30 9 35 8 5 9 9 3 9 -7 0
-11 34 -10 103 1 56 -2 112 -6 125 -4 12 -4 22 1 22 5 0 12 7 15 16 3 8 2 12
-4 9 -6 -4 -10 21 -10 65 0 54 3 69 13 64 9 -6 9 -5 0 8 -7 8 -9 18 -5 22 4 4
7 13 7 19 1 7 7 11 14 9 7 -1 10 2 7 7 -10 15 41 64 59 58 8 -4 14 -1 12 5 -1
7 4 13 11 14 6 1 14 2 17 3 3 0 7 0 8 -1 2 -2 11 3 20 11 14 11 17 11 17 0 0
-9 3 -10 8 -3 4 6 17 10 30 9 12 -1 22 1 22 4 0 14 95 5 108 -9z m-1578 -26
c0 5 8 2 17 -5 9 -8 14 -9 11 -4 -4 7 7 10 30 8 94 -6 144 -11 149 -17 4 -3
15 -6 25 -6 10 0 18 -5 18 -11 0 -8 5 -8 15 1 11 9 15 9 15 1 0 -7 4 -10 9 -6
5 3 12 1 16 -5 4 -6 10 -8 15 -5 14 9 60 -17 53 -29 -4 -6 1 -5 10 3 11 9 17
10 17 2 0 -6 7 -11 15 -11 8 0 15 -4 15 -9 0 -5 13 -14 29 -21 16 -6 32 -18
35 -27 3 -8 11 -11 18 -7 7 4 10 4 6 0 -3 -4 9 -24 28 -44 18 -20 32 -38 29
-40 -2 -2 2 -11 10 -19 8 -8 18 -26 22 -41 3 -15 11 -30 17 -34 8 -6 7 -11 -2
-17 -11 -6 -10 -10 4 -15 16 -6 16 -8 -2 -22 -10 -9 -13 -13 -6 -9 22 11 30
-4 22 -40 -4 -19 -4 -33 0 -30 12 7 9 -48 -4 -64 -9 -12 -8 -13 2 -7 11 7 13
-3 10 -47 -1 -30 0 -53 5 -50 4 2 7 -3 7 -12 0 -10 -5 -14 -12 -9 -10 6 -10 4
0 -7 18 -20 15 -33 -5 -18 -17 13 -17 12 -2 -6 9 -11 15 -30 13 -42 -2 -13 1
-23 7 -23 7 0 7 -6 -2 -17 -8 -9 -9 -14 -4 -11 6 4 10 -11 10 -37 0 -26 -4
-41 -10 -37 -5 3 -3 -3 5 -13 12 -15 13 -19 1 -23 -8 -3 -9 -7 -3 -11 12 -7
19 -102 8 -119 -4 -7 -3 -12 1 -12 5 0 8 -22 7 -50 -2 -35 1 -48 9 -43 8 4 8
2 0 -8 -7 -9 -12 -38 -11 -65 1 -27 -1 -55 -5 -61 -5 -8 -3 -13 3 -13 6 0 8
-5 4 -11 -3 -6 -6 -40 -5 -76 1 -47 -2 -62 -10 -57 -8 5 -9 3 -3 -7 13 -22 14
-69 1 -69 -8 0 -8 -3 -2 -8 14 -10 16 -43 1 -35 -8 5 -8 3 0 -8 5 -8 9 -34 8
-59 -3 -62 -3 -62 -13 -55 -5 3 -13 1 -16 -5 -4 -6 -1 -9 7 -8 17 4 13 -113
-5 -124 -9 -6 -9 -8 2 -8 11 0 11 -3 0 -17 -12 -14 -12 -16 0 -8 11 6 12 5 5
-6 -5 -8 -7 -22 -5 -33 2 -13 -1 -16 -11 -10 -10 6 -11 5 -1 -8 7 -8 10 -18 6
-22 -4 -3 -7 -27 -8 -52 -1 -27 -8 -50 -16 -55 -12 -7 -12 -9 1 -9 12 0 13 -2
1 -9 -7 -5 -11 -13 -7 -19 3 -6 2 -13 -3 -17 -6 -3 -7 -13 -4 -22 4 -9 2 -14
-3 -10 -6 3 -9 -5 -6 -22 3 -21 -2 -30 -20 -39 -12 -7 -15 -10 -5 -7 16 4 17
0 11 -33 -4 -20 -12 -43 -18 -51 -8 -11 -8 -13 1 -7 10 5 11 1 4 -17 -6 -14
-7 -28 -4 -31 4 -3 1 -6 -4 -6 -6 0 -10 -11 -8 -25 1 -14 -2 -25 -7 -25 -5 0
-6 -5 -2 -12 5 -8 2 -9 -11 -4 -13 5 -15 3 -8 -6 13 -16 13 -48 1 -48 -5 0 -7
-4 -4 -9 9 -15 -5 -42 -18 -34 -6 4 -5 -1 3 -11 9 -11 11 -20 5 -24 -5 -4 -10
-14 -10 -22 -1 -30 -26 -135 -36 -147 -6 -7 -14 -10 -19 -7 -5 3 -26 7 -46 10
-21 2 -54 7 -73 11 -19 3 -103 6 -186 7 -138 1 -150 2 -146 19 2 10 -1 17 -9
17 -12 0 -12 2 0 9 10 7 11 13 2 30 -7 11 -9 21 -6 21 4 0 3 6 -2 13 -4 6 -8
17 -8 22 -1 8 -14 80 -20 105 -13 56 -18 70 -28 70 -8 0 -7 4 1 12 14 14 16
32 3 24 -4 -3 -14 14 -21 37 -8 23 -20 51 -27 63 -7 11 -10 24 -6 27 3 4 1 7
-5 7 -7 0 -12 8 -12 18 0 10 -5 23 -11 29 -6 6 -12 19 -14 29 -1 11 -8 18 -14
16 -6 -1 -10 1 -10 5 4 22 -3 43 -17 57 -8 9 -12 16 -9 16 4 0 0 11 -9 25 -9
14 -14 25 -11 25 4 0 -1 7 -9 16 -9 8 -16 22 -16 30 0 8 -4 14 -10 14 -5 0
-10 7 -10 15 0 8 -4 15 -10 15 -12 0 -14 26 -2 33 4 2 1 2 -5 1 -15 -4 -35 30
-25 41 4 5 2 5 -4 2 -11 -6 -29 19 -26 36 1 4 -4 7 -12 7 -8 0 -16 10 -18 23
-2 12 -9 21 -16 19 -6 -1 -12 7 -12 18 0 11 -5 20 -11 20 -5 0 -8 4 -4 9 3 5
-4 13 -16 16 -16 5 -18 9 -9 15 9 6 7 10 -9 15 -12 3 -19 10 -16 15 3 5 -4 14
-16 20 -11 7 -18 14 -15 17 3 3 -8 18 -24 33 -22 21 -26 30 -17 39 9 10 8 11
-4 6 -18 -7 -53 31 -43 47 3 4 -3 5 -12 1 -14 -5 -16 -3 -11 11 4 9 3 15 -2
12 -11 -7 -41 37 -41 59 0 9 -4 13 -10 10 -10 -6 -14 23 -10 80 2 31 39 97 51
89 4 -2 10 3 13 12 4 9 9 15 12 12 2 -3 19 8 35 23 17 16 37 29 45 29 8 0 14
5 14 11 0 5 5 7 10 4 6 -3 13 1 17 11 6 15 7 15 20 -2 14 -18 14 -18 11 1 -2
12 2 19 10 18 6 -2 12 2 12 9 0 6 3 9 6 5 3 -3 16 3 27 14 12 11 27 17 34 15
7 -3 12 -1 10 3 -1 5 2 11 8 13 5 1 34 26 64 53 30 28 60 49 67 49 7 -1 12 1
11 5 -2 5 20 32 76 92 9 10 15 19 12 19 -3 0 2 11 11 25 9 14 13 25 9 25 -4 0
-1 8 6 17 10 11 10 14 2 9 -8 -4 -13 -1 -13 8 0 9 -5 16 -11 16 -5 0 -8 4 -4
9 3 6 -9 17 -27 25 -30 14 -43 15 -87 4 -8 -1 -32 -23 -53 -48 -21 -25 -52
-60 -68 -78 -17 -19 -30 -38 -30 -43 0 -5 -5 -9 -10 -9 -6 0 -20 -9 -32 -20
-12 -10 -24 -17 -28 -15 -5 3 -11 -2 -14 -11 -3 -8 -10 -12 -16 -9 -6 4 -7 11
-4 17 4 7 2 8 -5 4 -6 -4 -9 -11 -6 -16 5 -9 -33 -26 -48 -22 -4 1 -17 -3 -29
-9 -16 -9 -19 -8 -12 3 6 11 5 11 -9 -1 -14 -11 -17 -11 -17 0 0 8 -6 5 -15
-7 -8 -10 -15 -14 -15 -9 0 6 -19 10 -43 10 -46 -1 -78 19 -70 44 4 14 3 14
-6 1 -10 -13 -12 -13 -21 0 -5 8 -8 20 -6 26 2 6 0 17 -6 25 -8 11 -9 10 -4
-3 3 -10 2 -18 -3 -18 -8 0 -25 56 -22 73 0 4 -3 7 -7 7 -5 0 -9 6 -9 13 -1
20 -8 42 -15 48 -5 3 -9 17 -10 32 -1 15 -6 27 -10 27 -4 0 -8 5 -8 11 0 5 6
7 13 3 6 -4 4 2 -6 13 -9 11 -14 23 -11 26 4 4 1 14 -7 24 -12 15 -12 16 1 9
8 -4 6 0 -4 8 -11 9 -15 16 -9 16 8 0 8 8 -2 26 -14 28 -10 58 8 47 6 -3 7 -1
3 6 -4 6 -12 9 -17 6 -5 -4 -9 3 -9 15 0 14 4 19 13 15 6 -4 3 1 -7 9 -11 9
-17 16 -13 16 3 0 0 18 -8 40 -8 22 -11 40 -7 40 4 0 1 4 -7 9 -10 6 -5 13 19
25 18 8 37 13 43 9 5 -3 7 -1 4 4 -4 6 0 14 9 17 10 4 13 2 9 -7 -4 -6 0 -4 9
6 10 13 22 17 38 12 18 -5 20 -4 8 4 -8 6 -12 11 -7 11 4 0 8 -1 10 -2 1 -1
25 11 52 28 28 16 50 27 50 26 0 -2 12 -1 27 3 16 4 26 10 23 14 -2 4 2 8 10
8 8 0 12 -5 9 -11 -3 -6 1 -3 9 6 8 10 17 15 20 11 4 -3 7 -1 7 5 0 7 3 11 8
11 4 -1 10 0 15 1 4 1 10 3 15 5 4 1 15 5 26 10 12 5 27 3 40 -5 19 -12 20
-12 8 3 -14 16 -6 21 45 32 10 2 30 8 44 13 15 6 30 8 33 5 3 -4 6 -1 6 6 0 7
4 10 8 7 4 -3 26 0 48 5 46 12 143 21 232 23 35 0 62 5 62 11 0 5 5 3 10 -5 5
-8 10 -11 10 -6z m-1341 -500 c1 6 7 1 15 -9 8 -11 12 -23 10 -27 -3 -4 2 -5
10 -2 9 4 18 -1 22 -10 3 -9 12 -16 20 -16 8 0 14 -4 14 -10 0 -5 7 -10 15
-10 9 0 20 -10 25 -22 5 -13 9 -17 9 -10 1 10 4 10 15 0 8 -7 12 -16 10 -19
-2 -4 5 -9 16 -12 11 -3 24 -16 29 -29 6 -12 10 -19 10 -15 2 16 31 -22 32
-40 0 -12 2 -13 6 -5 5 14 43 -39 48 -68 1 -8 7 -14 12 -13 5 1 10 -3 11 -10
3 -40 7 -57 12 -57 9 0 6 -63 -4 -79 -6 -10 -5 -12 2 -7 14 8 15 4 6 -18 -3
-9 -10 -13 -15 -10 -5 3 -6 -2 -3 -11 6 -15 -9 -55 -31 -82 -31 -38 -37 -43
-45 -38 -6 3 -7 -1 -4 -9 3 -9 -2 -17 -15 -21 -12 -3 -19 -11 -16 -16 4 -5 2
-9 -3 -9 -5 0 -27 -8 -48 -17 -22 -9 -41 -17 -44 -18 -3 0 -9 -3 -15 -6 -5 -4
-18 -5 -27 -4 -10 2 -18 -2 -18 -8 0 -7 -5 -5 -10 3 -7 10 -10 11 -10 2 0 -8
-9 -11 -25 -8 -14 3 -25 0 -25 -5 0 -6 -5 -7 -10 -4 -6 4 -7 12 -3 18 4 8 1 8
-9 -1 -18 -14 -99 -19 -118 -7 -8 5 -11 4 -7 -2 4 -6 0 -13 -8 -17 -8 -3 -17
-1 -20 5 -4 5 -12 6 -18 2 -7 -4 -20 -9 -30 -10 -38 -6 -54 -27 -53 -70 0 -23
3 -40 6 -38 4 2 13 -7 20 -20 7 -13 17 -22 22 -19 4 3 8 1 8 -4 0 -11 90 -45
98 -37 3 2 19 -5 36 -17 17 -12 26 -15 19 -7 -12 15 -2 16 210 10 12 -1 16 -5
11 -13 -6 -10 -5 -10 7 -1 11 9 25 9 57 0 23 -6 42 -15 42 -20 0 -4 -4 -5 -10
-2 -16 10 -12 -1 6 -15 8 -8 14 -9 13 -4 -1 5 -1 12 0 16 2 10 90 -77 93 -92
2 -7 11 -22 21 -32 10 -10 15 -23 12 -28 -4 -6 -1 -10 5 -10 7 0 9 -7 6 -16
-4 -9 -2 -13 5 -8 8 5 10 -3 7 -24 -3 -19 0 -30 6 -29 6 1 10 -4 9 -10 -2 -7
3 -13 10 -13 6 0 1 -9 -13 -19 -22 -17 -22 -19 -5 -18 13 1 20 -4 20 -18 0
-11 3 -24 6 -30 5 -10 10 -50 13 -107 0 -16 3 -28 6 -28 3 0 7 -8 8 -17 3 -33
7 -48 16 -62 7 -10 5 -12 -5 -7 -8 4 -7 1 3 -6 12 -10 13 -19 7 -31 -7 -12 -6
-17 1 -17 6 0 8 -4 5 -10 -3 -5 -1 -10 6 -10 8 0 7 -5 -2 -17 -12 -14 -12 -16
0 -8 11 6 13 3 9 -13 -4 -12 -2 -22 2 -22 5 0 7 -9 5 -20 -2 -11 0 -20 4 -20
5 0 9 -11 10 -25 3 -48 4 -55 12 -55 4 0 6 -9 4 -20 -2 -11 1 -22 6 -26 6 -4
5 -11 -2 -20 -10 -12 -10 -14 1 -12 7 2 19 -16 29 -44 9 -26 19 -50 24 -54 4
-4 7 -16 7 -26 0 -10 5 -18 10 -18 6 0 10 -9 10 -20 0 -11 5 -20 11 -20 5 0 7
-4 4 -10 -3 -5 -1 -10 5 -10 6 0 8 -4 5 -10 -3 -5 -1 -10 4 -10 6 0 11 -7 11
-15 0 -8 4 -15 10 -15 5 0 12 -11 16 -25 3 -14 11 -25 16 -25 6 0 7 -7 4 -16
-3 -8 -2 -13 2 -11 9 6 33 -19 25 -27 -4 -3 2 -6 12 -6 10 0 16 -3 12 -6 -7
-7 63 -74 77 -74 5 0 -23 -31 -61 -69 -39 -39 -68 -72 -65 -75 3 -4 0 -6 -6
-6 -7 0 -12 -7 -12 -15 0 -13 -12 -19 -32 -16 -4 0 -4 -7 -1 -16 5 -12 3 -14
-7 -8 -9 6 -11 4 -5 -5 4 -7 3 -15 -3 -19 -6 -3 -12 -13 -14 -21 -7 -32 -25
-41 -55 -28 -15 6 -32 12 -38 12 -5 1 -16 7 -23 14 -8 7 -18 10 -23 7 -5 -4
-9 -1 -9 5 0 6 -4 8 -10 5 -5 -3 -10 -1 -10 4 0 6 -3 10 -7 10 -19 -3 -34 2
-29 9 3 5 -5 8 -17 7 -12 -1 -28 4 -35 12 -8 7 -18 11 -23 8 -8 -6 -13 9 -10
28 1 5 -3 6 -9 2 -6 -3 -8 -11 -4 -16 3 -6 -17 1 -45 16 -29 14 -56 23 -61 20
-6 -4 -13 1 -16 9 -3 9 -10 14 -14 11 -5 -3 -11 -1 -15 5 -3 5 -15 10 -26 10
-10 0 -19 5 -19 12 0 6 -3 9 -6 5 -10 -9 -64 14 -57 26 3 5 2 7 -4 4 -9 -6
-77 14 -89 26 -4 4 -16 7 -26 7 -11 0 -16 5 -13 10 4 6 -7 10 -24 10 -17 0
-31 5 -31 12 0 6 -3 8 -6 5 -4 -3 -16 0 -28 8 -11 8 -28 15 -38 15 -10 0 -18
5 -18 11 0 5 -4 8 -9 4 -5 -3 -12 -1 -16 5 -4 6 -11 8 -16 5 -5 -4 -9 -1 -9 4
0 6 -6 10 -12 9 -7 -2 -12 3 -10 10 2 14 -15 17 -20 2 -3 -9 -70 18 -76 32 -2
4 -8 8 -13 8 -6 0 -7 -6 -4 -12 4 -7 -3 -2 -15 12 -12 14 -19 19 -15 13 3 -7
1 -13 -4 -13 -6 0 -11 5 -11 10 0 6 -6 9 -12 8 -7 -2 -12 2 -11 8 1 7 -6 10
-16 7 -11 -3 -31 3 -45 12 -14 10 -26 14 -26 11 0 -4 -14 1 -30 9 -17 9 -28
20 -26 24 3 4 -6 6 -20 3 -15 -3 -29 1 -34 7 -4 7 -13 14 -21 15 -8 2 -30 9
-49 17 -19 7 -38 12 -42 11 -5 -1 -8 2 -8 8 0 6 -6 9 -12 8 -7 -2 -12 3 -10
10 1 8 -2 10 -8 7 -15 -9 -130 34 -130 48 0 5 -4 5 -10 2 -5 -3 -10 -1 -10 5
0 6 -4 8 -10 5 -5 -3 -10 -1 -10 5 0 6 -4 8 -10 5 -5 -3 -10 -1 -10 6 0 7 -3
9 -7 6 -3 -4 -12 -2 -20 4 -7 6 -13 8 -13 4 0 -4 -7 -2 -15 5 -8 7 -13 16 -10
20 3 5 0 12 -6 16 -8 4 -9 3 -5 -4 4 -7 1 -12 -8 -12 -9 0 -16 5 -16 10 0 6
-3 9 -7 9 -23 -4 -43 2 -38 11 3 6 1 10 -5 10 -6 0 -8 5 -4 13 5 8 2 8 -9 -2
-15 -12 -21 -9 -18 11 0 4 -5 5 -12 2 -16 -6 -67 42 -67 62 0 8 -4 14 -10 14
-8 0 -7 68 0 78 2 1 4 7 5 12 1 6 4 13 5 18 1 4 2 10 1 15 0 4 4 7 10 7 5 0 7
5 4 10 -3 6 -1 10 5 10 6 0 9 4 5 9 -3 5 -1 12 5 16 6 4 8 11 5 16 -4 5 -2 9
4 9 10 0 27 38 23 53 -1 4 2 7 7 7 5 0 15 16 21 35 7 21 16 32 22 29 7 -4 8
-2 4 5 -4 6 0 23 8 36 9 14 13 25 9 25 -4 0 2 7 13 16 10 8 12 12 5 8 -9 -5
-6 4 7 23 12 17 19 33 15 37 -3 3 0 6 7 6 7 0 10 3 7 6 -4 4 3 20 15 37 13 19
16 28 7 23 -11 -6 -11 -5 1 6 14 12 32 46 40 73 2 6 10 16 19 23 9 8 11 11 4
8 -8 -5 -8 0 0 19 7 14 15 25 20 25 4 0 7 8 7 18 0 11 9 27 20 37 10 9 18 20
17 24 -3 11 27 71 36 71 5 0 6 4 2 9 -3 6 1 13 9 18 8 4 15 11 16 15 8 37 15
48 29 48 13 0 13 2 2 9 -10 7 -9 11 5 22 11 8 20 21 22 29 5 23 43 80 53 80 5
0 9 7 9 15 0 8 21 43 46 77 25 35 53 73 62 86 27 38 75 94 109 129 18 18 30
33 28 33 -2 0 7 11 21 25 14 14 29 25 35 25 6 0 7 5 4 10 -3 6 1 13 11 17 9 3
44 32 78 64 92 88 104 97 110 91 3 -3 6 0 6 6 0 7 6 12 14 12 8 0 17 7 20 16
4 9 9 14 12 11 3 -3 15 4 27 14 59 53 60 54 52 39 -5 -8 2 -6 16 6 13 12 32
24 42 27 9 4 17 12 18 19 0 7 4 4 9 -7 5 -11 9 -16 9 -11z m4551 -848 c0 -8 7
-16 15 -20 8 -3 15 -12 15 -21 0 -8 5 -15 11 -15 5 0 7 -4 4 -10 -3 -5 -1 -10
4 -10 6 0 11 -7 11 -16 0 -8 5 -12 10 -9 6 3 10 -1 10 -9 0 -9 5 -16 10 -16 6
0 10 -7 10 -15 0 -8 5 -15 12 -15 6 0 8 -3 5 -6 -4 -4 3 -15 15 -26 12 -10 18
-21 15 -25 -4 -3 2 -12 13 -20 11 -8 20 -18 20 -23 0 -5 11 -21 25 -36 14 -15
23 -34 20 -41 -2 -8 -1 -12 4 -9 5 3 15 -2 22 -11 12 -14 12 -16 -1 -9 -8 4
-7 1 3 -7 9 -8 16 -21 14 -28 -2 -8 -2 -10 1 -6 6 11 32 -13 32 -29 0 -8 5
-14 11 -14 5 0 7 -5 4 -10 -3 -6 1 -13 9 -16 9 -3 14 -10 11 -14 -3 -4 2 -10
10 -14 8 -3 15 -10 15 -16 0 -6 9 -20 20 -32 11 -12 20 -28 20 -35 0 -7 5 -13
11 -13 5 0 7 -4 4 -10 -3 -5 1 -10 9 -10 9 0 16 -8 16 -19 0 -10 7 -24 15 -31
9 -7 14 -19 11 -27 -3 -7 -1 -13 4 -13 11 0 44 -60 33 -60 -5 0 0 -5 10 -11 9
-6 15 -14 12 -20 -4 -5 -1 -9 5 -9 7 0 10 -7 6 -15 -3 -8 -1 -15 5 -15 6 0 8
-4 5 -9 -4 -5 -2 -11 3 -13 5 -1 11 -10 13 -18 2 -8 6 -17 10 -20 4 -3 9 -15
11 -25 2 -11 9 -31 14 -45 6 -14 8 -31 5 -39 -3 -9 -1 -12 6 -7 11 7 16 -11
15 -51 -1 -7 4 -10 10 -6 6 4 8 0 4 -10 -4 -10 -1 -17 5 -17 6 0 9 -3 6 -6 -4
-3 0 -20 7 -37 25 -62 28 -80 14 -73 -8 4 -6 1 3 -7 10 -8 15 -17 12 -20 -3
-3 -2 -12 2 -19 10 -16 15 -37 15 -60 0 -10 6 -18 12 -18 8 0 8 -3 2 -8 -12
-9 -16 -44 -4 -36 5 3 9 -6 9 -20 0 -14 4 -27 8 -30 4 -2 9 -21 10 -42 2 -20
8 -46 13 -57 9 -15 8 -18 -2 -12 -9 6 -10 4 -3 -6 15 -23 32 -79 23 -73 -14 8
-10 -6 5 -22 8 -8 13 -23 11 -34 -2 -11 1 -20 7 -20 6 0 5 -7 -3 -17 -8 -10
-9 -14 -2 -10 6 4 14 3 18 -3 3 -5 1 -10 -6 -10 -8 0 -9 -3 0 -13 6 -8 8 -17
4 -20 -3 -4 -2 -7 3 -7 5 0 10 -9 11 -20 1 -13 -2 -18 -10 -13 -9 5 -9 3 -1
-8 13 -16 16 -71 3 -64 -4 3 -7 -7 -6 -22 3 -36 -12 -55 -33 -40 -8 7 -6 2 4
-11 17 -19 17 -22 3 -22 -11 0 -14 -5 -10 -17 5 -12 3 -14 -7 -8 -10 6 -12 4
-7 -9 5 -14 3 -17 -8 -13 -8 4 -17 1 -21 -5 -4 -7 -3 -8 4 -4 7 4 12 3 12 -3
0 -14 -35 -32 -44 -23 -4 3 -4 -1 -1 -9 7 -18 -47 -49 -88 -52 -12 0 -26 -6
-30 -12 -6 -7 -10 -6 -14 4 -5 11 -7 11 -14 0 -6 -10 -9 -11 -9 -1 0 6 -5 12
-11 12 -5 0 -7 -6 -3 -12 6 -10 4 -10 -7 -2 -23 18 -51 26 -43 12 5 -8 2 -9
-10 -5 -10 4 -22 7 -27 7 -6 0 -7 6 -4 13 4 6 0 4 -7 -5 -13 -15 -15 -15 -26
0 -7 9 -10 12 -7 5 3 -6 1 -14 -5 -18 -5 -3 -10 2 -10 12 0 14 -2 15 -9 4 -6
-9 -11 -10 -15 -2 -5 7 -13 8 -25 1 -10 -5 -21 -6 -25 -3 -4 4 -32 7 -64 8
-32 1 -64 5 -71 10 -9 5 -12 4 -8 -2 5 -7 -4 -9 -26 -4 -17 3 -45 6 -62 5 -16
-1 -36 4 -44 10 -10 7 -13 8 -8 0 7 -12 -31 -13 -50 -1 -8 5 -13 3 -13 -5 0
-8 -3 -9 -8 -3 -9 14 -45 14 -54 0 -5 -7 -8 -7 -8 1 0 6 -22 10 -55 10 -30 -1
-55 3 -55 9 0 6 -4 4 -9 -4 -7 -11 -11 -10 -20 5 -10 18 -10 18 -11 1 0 -15
-3 -16 -20 -7 -11 6 -20 7 -20 3 0 -13 -132 -4 -149 10 -12 9 -13 9 -7 0 5 -9
0 -13 -16 -13 -13 0 -30 6 -37 13 -8 6 -11 7 -8 1 8 -14 -141 -13 -162 0 -10
6 -12 6 -7 -2 4 -7 2 -12 -3 -12 -6 0 -11 6 -11 13 0 8 -3 8 -8 2 -9 -13 -272
-14 -272 -1 0 5 -6 4 -13 -2 -8 -7 -18 -7 -27 -2 -9 5 -19 5 -27 -2 -10 -8
-13 -7 -13 3 0 9 -3 10 -8 4 -8 -11 -52 -16 -52 -6 0 10 -65 7 -72 -4 -5 -6
-8 -6 -8 2 0 12 -39 11 -60 -2 -7 -5 -11 -4 -8 1 4 5 -41 9 -103 9 -60 0 -109
-3 -109 -6 0 -4 -9 -5 -20 -2 -11 3 -17 10 -13 17 3 6 -3 3 -14 -7 -11 -9 -23
-14 -27 -10 -11 12 -56 11 -56 -1 0 -7 -3 -7 -8 -1 -9 12 -42 19 -42 8 0 -4
-13 -8 -30 -8 -16 0 -30 4 -30 9 0 5 -6 4 -13 -2 -7 -6 -25 -9 -40 -6 -18 3
-27 0 -28 -8 0 -7 -4 -4 -9 7 -7 17 -9 17 -9 3 -1 -11 -6 -15 -16 -12 -8 4
-12 11 -9 18 3 6 -2 2 -11 -9 -14 -17 -17 -18 -26 -5 -5 8 -7 23 -5 33 2 9 0
15 -5 11 -5 -3 -10 2 -10 10 -3 29 -4 34 -11 42 -15 14 -9 72 8 78 9 4 13 2 8
-5 -3 -6 6 -3 22 7 15 11 25 13 20 6 -4 -7 12 1 36 17 23 16 47 27 52 24 5 -4
6 -1 3 4 -9 14 19 37 32 28 7 -4 8 1 4 11 -3 10 -2 15 3 12 5 -3 52 39 105 94
53 54 95 98 94 98 -1 0 18 21 43 48 25 26 52 57 60 70 8 13 21 21 29 18 8 -3
12 -2 8 3 -3 5 13 28 35 51 22 23 40 43 40 46 0 12 45 52 53 47 6 -3 7 -1 3 5
-3 6 1 17 9 25 8 9 15 20 15 25 0 6 7 12 15 16 8 3 15 12 15 21 0 8 5 15 11
15 5 0 7 5 4 10 -3 6 -1 10 5 10 6 0 15 12 20 26 7 16 14 23 22 18 10 -6 10
-4 0 8 -11 14 -10 18 3 26 9 5 16 11 16 13 -4 12 22 68 29 64 4 -3 6 4 3 15
-4 15 0 20 13 20 14 0 16 2 6 9 -11 6 -10 15 4 44 10 20 21 34 26 31 4 -3 5 2
2 10 -3 9 -1 16 6 16 6 0 9 4 6 9 -9 14 20 21 35 8 9 -9 9 -7 -1 6 -12 17 -10
21 21 45 18 15 42 35 51 45 17 16 23 14 18 -8 -1 -5 1 -7 5 -3 4 3 6 8 4 10
-5 6 23 50 28 44 4 -3 11 -2 17 3 21 16 48 22 40 8 -5 -8 -2 -7 9 2 12 9 17
10 17 2 0 -7 4 -10 8 -7 5 3 20 -1 35 -9 15 -8 27 -11 27 -8 0 3 8 0 18 -8 9
-8 31 -21 47 -29 38 -19 56 -36 47 -44 -3 -4 1 -4 10 -1 17 7 108 -71 108 -93
0 -7 4 -12 8 -12 9 0 59 -101 54 -107 -2 -3 5 -12 15 -21 10 -9 29 -34 43 -54
14 -21 34 -38 45 -39 11 -1 27 -2 35 -3 8 0 26 10 39 24 13 14 28 24 35 22 7
-2 7 1 -1 9 -7 7 -13 22 -13 34 0 12 -6 27 -12 34 -11 11 -10 13 2 7 8 -4 7
-1 -4 8 -10 8 -15 19 -11 25 3 6 1 11 -4 11 -6 0 -11 9 -11 20 0 11 -4 20 -8
20 -5 0 -14 16 -22 35 -8 20 -22 43 -32 52 -10 9 -18 22 -18 28 0 7 -7 16 -16
19 -9 4 -14 13 -10 21 3 8 1 14 -3 12 -5 -1 -9 1 -10 5 -1 5 -15 21 -31 37
-17 15 -30 34 -30 40 0 7 -4 10 -9 7 -5 -3 -12 1 -15 10 -4 10 -2 13 7 8 6 -4
2 3 -10 15 -13 12 -26 33 -29 46 -3 14 -11 22 -17 18 -6 -4 -8 0 -4 10 4 10 0
20 -11 26 -11 7 -12 10 -4 11 10 0 9 4 -2 16 -9 8 -14 20 -11 25 4 5 2 9 -4 9
-5 0 -8 11 -6 25 1 14 -1 28 -5 30 -4 3 -6 22 -5 42 4 54 4 55 18 47 9 -5 9
-4 0 6 -14 15 -2 45 26 68 12 11 13 12 1 6 -13 -7 -13 -5 -1 9 7 9 16 15 20
13 9 -6 31 21 23 29 -4 4 0 6 8 3 8 -3 21 2 28 11 11 13 12 13 6 1 -5 -10 0
-9 14 4 21 18 27 15 22 -9 -1 -5 9 0 22 11 13 12 33 20 46 19 12 -1 22 3 22 8
0 5 7 4 16 -3 8 -8 14 -9 13 -4 -4 21 2 26 18 13 14 -12 16 -12 8 0 -6 11 -4
13 8 8 10 -3 17 -2 17 2 0 5 11 8 25 6 14 -1 25 2 25 6 0 5 6 9 14 9 18 0 76
32 76 42 0 4 7 5 15 2 11 -5 13 -2 9 10 -4 9 -3 16 2 15 21 -4 28 2 14 12 -12
9 -11 10 8 6 22 -5 32 8 11 15 -8 3 -6 9 5 20 12 12 13 18 3 21 -7 3 -5 6 6 6
9 1 17 -5 17 -13z m-3855 -458 c-3 -11 -1 -17 3 -14 4 4 8 12 8 17 1 5 2 12 3
16 0 3 9 -3 19 -13 9 -10 24 -20 32 -22 8 -2 18 -9 22 -15 4 -7 8 -8 8 -3 0 6
7 1 15 -10 8 -10 15 -16 15 -11 0 4 8 -1 18 -10 11 -10 17 -21 15 -25 -2 -5 1
-8 6 -8 14 0 45 -32 49 -50 2 -8 11 -20 20 -28 12 -9 13 -12 2 -7 -10 4 -9 2
3 -8 9 -8 17 -22 17 -31 0 -9 5 -16 10 -16 6 0 10 -6 10 -14 0 -7 7 -19 15
-26 9 -7 14 -15 11 -17 -2 -2 7 -16 20 -30 13 -14 22 -28 20 -31 -3 -2 4 -14
15 -25 11 -12 27 -38 36 -59 9 -21 20 -38 24 -38 4 0 6 -9 4 -20 -2 -11 0 -18
5 -15 11 7 23 -32 14 -46 -4 -8 -3 -9 4 -5 11 7 14 3 16 -26 1 -7 5 -16 9 -19
4 -3 9 -18 11 -32 1 -15 6 -30 9 -34 12 -12 7 -34 -5 -28 -7 4 -6 1 2 -7 17
-15 22 -78 6 -78 -6 0 -3 -5 7 -11 14 -8 15 -14 6 -31 -6 -12 -7 -18 -1 -14 5
3 12 -1 15 -8 5 -14 -29 -28 -71 -30 -7 -1 -17 -8 -22 -16 -8 -13 -10 -13 -10
2 0 9 -4 19 -9 22 -5 4 -7 -4 -4 -16 3 -13 2 -20 -2 -16 -5 4 -14 3 -22 -3 -7
-6 -13 -8 -13 -5 0 4 -9 -2 -21 -13 -11 -10 -31 -18 -43 -17 -16 2 -23 -2 -22
-13 0 -8 -7 -17 -18 -19 -13 -3 -16 0 -11 10 6 10 5 11 -6 1 -7 -7 -18 -13
-23 -13 -6 0 -4 5 4 10 13 8 13 10 -1 10 -9 0 -20 7 -23 16 -3 8 -10 12 -16 9
-5 -3 -10 1 -10 10 0 9 -4 13 -10 10 -5 -3 -10 1 -10 9 0 9 -5 16 -11 16 -6 0
-9 7 -6 14 4 10 1 13 -9 9 -8 -3 -14 1 -14 11 0 9 -4 16 -10 16 -5 0 -10 6
-10 14 0 8 -4 16 -9 18 -5 2 -11 12 -13 23 -1 11 -7 23 -12 26 -5 4 -9 20 -10
37 0 17 -4 28 -8 26 -10 -6 -20 34 -12 47 4 7 3 9 -3 6 -13 -8 -27 39 -17 55
4 7 3 8 -4 4 -11 -7 -16 12 -15 51 1 7 -4 10 -10 6 -6 -4 -8 0 -4 10 3 9 2 19
-3 22 -5 3 -8 16 -6 28 1 12 -3 28 -11 35 -10 10 -10 18 -2 34 7 13 7 18 1 14
-6 -3 -13 -2 -17 4 -3 5 -2 10 3 10 5 0 9 7 9 15 0 8 -5 15 -10 15 -5 0 -7 11
-5 25 3 14 1 28 -4 31 -6 4 -5 10 3 15 10 6 11 9 2 9 -7 0 -13 7 -13 15 0 8 6
15 13 15 9 0 9 2 0 8 -7 4 -9 25 -6 57 2 28 4 58 4 67 0 10 5 20 10 23 5 4 7
11 4 16 -4 5 -1 9 4 9 6 0 11 9 11 20 0 11 6 20 13 21 9 0 9 2 0 6 -10 3 -10
7 0 18 16 17 27 9 22 -17z m2479 -499 c20 3 26 0 21 -9 -3 -5 -1 -10 4 -10 6
0 11 -10 11 -21 0 -19 -2 -20 -17 -8 -16 12 -16 11 0 -8 12 -14 15 -23 7 -28
-5 -3 -8 -11 -5 -16 4 -5 2 -9 -3 -9 -6 0 -8 -10 -4 -22 3 -14 2 -19 -6 -14
-8 5 -12 -2 -12 -18 0 -14 -5 -26 -11 -26 -5 0 -7 -4 -4 -10 3 -5 2 -10 -4
-10 -6 0 -8 -7 -5 -15 4 -8 -1 -17 -10 -21 -9 -3 -13 -10 -10 -15 3 -5 0 -9
-6 -9 -6 0 -8 -4 -5 -10 3 -5 1 -10 -6 -10 -7 0 -10 -3 -6 -6 9 -9 -25 -44
-36 -37 -6 3 -7 1 -4 -4 8 -13 -47 -126 -56 -116 -4 3 -7 -1 -7 -9 0 -23 -26
-43 -34 -26 -3 7 -4 4 -1 -7 4 -15 -8 -31 -41 -60 -25 -22 -56 -51 -69 -63
-13 -13 -29 -21 -35 -17 -6 3 -9 3 -8 -2 2 -4 -7 -18 -19 -30 -13 -13 -23 -21
-23 -18 0 2 -13 -8 -30 -23 -66 -61 -124 -107 -132 -105 -4 2 -7 0 -7 -5 3
-19 -2 -33 -11 -27 -5 3 -10 1 -10 -6 0 -20 -29 24 -30 44 0 10 -4 15 -10 12
-5 -3 -10 1 -10 9 0 9 -4 16 -10 16 -5 0 -10 4 -10 10 0 19 -85 112 -94 103
-3 -4 -6 1 -6 11 0 9 -4 15 -9 11 -5 -3 -12 4 -16 15 -3 11 -11 20 -16 20 -18
0 23 105 51 128 13 11 13 12 0 7 -8 -4 -5 2 8 13 12 11 22 24 22 28 0 4 26 32
58 61 31 29 69 65 84 80 24 24 29 25 45 12 16 -12 17 -12 6 1 -9 12 -5 21 23
48 19 18 34 29 34 26 0 -4 8 3 19 14 10 12 26 22 35 22 10 0 14 5 11 10 -3 6
0 10 8 10 8 0 20 7 27 15 7 8 16 12 21 9 5 -3 9 0 9 6 0 6 12 16 28 22 15 7
40 21 56 32 19 13 27 15 21 5 -5 -9 -1 -8 12 4 11 9 27 17 36 17 9 0 17 5 17
11 0 5 5 7 10 4 6 -4 16 -2 23 3 7 5 22 8 35 7 12 -1 22 2 22 6 0 4 8 6 18 4
10 -2 25 1 33 5 8 5 16 5 20 -1 3 -6 9 -10 13 -10z m-1667 -522 c6 -4 15 -2
19 5 5 8 10 6 15 -8 6 -15 8 -16 8 -2 1 18 34 15 60 -6 11 -8 13 -8 7 2 -4 6
-2 12 3 12 6 0 11 -6 12 -12 0 -10 2 -10 6 -1 3 10 10 10 25 2 11 -6 26 -8 34
-5 8 3 14 1 14 -4 0 -6 -5 -10 -12 -10 -6 0 -9 -3 -5 -6 3 -3 12 -2 19 2 25
16 36 12 34 -11 0 -13 -4 -21 -8 -18 -5 2 -8 -7 -8 -21 0 -14 -6 -26 -12 -26
-9 0 -8 -4 2 -10 14 -9 7 -14 -13 -11 -5 1 -4 -6 1 -16 8 -13 6 -21 -6 -31
-12 -9 -12 -11 -2 -6 12 7 13 5 3 -8 -7 -8 -10 -18 -6 -21 3 -4 -2 -10 -11
-13 -14 -5 -15 -9 -5 -15 11 -6 8 -15 -10 -40 -13 -17 -19 -29 -13 -25 6 3 4
-7 -4 -24 -9 -16 -20 -30 -25 -30 -6 0 -8 -4 -5 -9 3 -5 -1 -12 -10 -15 -8 -3
-12 -11 -9 -16 4 -6 3 -10 -2 -9 -16 4 -43 -13 -36 -24 4 -6 0 -8 -10 -4 -9 3
-19 2 -23 -4 -3 -6 -12 -8 -19 -5 -8 3 -15 1 -17 -4 -4 -12 -148 -19 -148 -7
0 5 -8 3 -17 -4 -15 -12 -16 -12 -10 6 7 18 6 19 -6 3 -8 -10 -16 -15 -19 -13
-3 3 -26 6 -51 7 -32 0 -44 4 -40 12 4 6 0 5 -9 -2 -12 -10 -18 -10 -23 -1 -6
8 -10 7 -16 -2 -5 -8 -9 -9 -9 -3 0 6 -12 11 -27 11 -54 2 -93 7 -93 14 0 4
-7 10 -16 13 -9 3 -12 2 -9 -5 8 -13 -44 -1 -64 15 -12 9 -13 8 -6 -3 6 -11 5
-12 -6 -5 -8 5 -25 10 -39 12 -13 2 -27 6 -30 10 -3 4 -18 8 -35 10 -43 5 -44
8 -13 57 28 42 37 48 56 34 14 -11 15 -11 5 1 -15 17 -17 44 -3 35 6 -3 10 -1
10 5 0 7 14 25 30 40 17 15 30 26 30 22 0 -3 8 5 19 16 10 12 21 19 25 15 3
-3 6 -2 6 4 0 14 78 65 89 58 5 -2 12 2 15 11 3 8 10 12 16 9 6 -3 13 1 16 10
5 13 9 13 22 3 11 -9 14 -9 9 -1 -10 17 83 45 101 30 9 -7 11 -6 6 6 -4 12 -1
15 15 12 12 -2 21 0 21 5 0 4 7 7 15 6 9 -1 35 0 58 3 56 8 119 7 134 -2z
m658 -159 c14 -6 25 -16 25 -21 0 -6 3 -8 6 -4 3 3 18 -5 32 -19 15 -13 30
-24 35 -24 4 0 5 -5 1 -12 -4 -7 -3 -8 4 -4 7 4 27 -9 46 -29 19 -19 29 -35
23 -36 -7 0 -2 -4 11 -9 12 -5 22 -14 22 -20 0 -6 7 -18 15 -27 8 -8 13 -19
10 -24 -4 -5 -2 -9 4 -9 5 0 15 -16 22 -35 7 -19 17 -35 21 -35 4 0 8 -5 8
-11 0 -5 -6 -7 -12 -4 -7 4 -4 -2 7 -12 11 -10 21 -27 22 -38 3 -24 11 -60 13
-60 1 0 3 -7 5 -15 2 -11 -6 -15 -29 -15 -17 1 -38 5 -45 10 -10 5 -12 4 -7
-4 6 -8 -2 -11 -28 -8 -19 2 -33 0 -30 -4 3 -5 1 -9 -4 -9 -5 0 -14 10 -21 23
-6 12 -10 14 -7 5 6 -20 -7 -25 -61 -23 -25 2 -43 -2 -43 -8 0 -6 -7 -2 -16 9
-8 10 -13 14 -10 7 4 -6 2 -14 -4 -18 -5 -3 -10 2 -10 12 0 15 -2 16 -10 3 -5
-8 -10 -10 -10 -5 0 6 -5 3 -10 -5 -5 -8 -10 -10 -10 -5 0 6 -17 10 -38 10
-39 -1 -82 31 -82 61 0 7 -5 14 -10 14 -7 0 -7 6 -2 18 5 9 7 23 4 31 -3 9 0
11 8 6 9 -5 11 -4 6 4 -4 6 -4 20 -1 32 6 17 9 18 23 7 15 -11 15 -10 0 8 -15
17 -16 23 -4 40 7 10 12 27 10 37 -1 9 2 17 7 17 6 0 8 4 4 9 -3 5 -1 12 4 16
6 3 8 12 5 19 -3 7 2 16 11 20 13 5 14 10 4 27 -8 15 -8 19 0 15 10 -6 16 13
12 37 0 4 4 7 9 7 6 0 9 3 9 8 -8 49 9 62 56 40z m-3489 -71 c-5 10 9 12 63
11 39 -2 71 -5 71 -8 0 -3 21 -6 47 -8 25 -1 51 -6 57 -10 6 -4 25 -9 41 -11
17 -2 32 -7 33 -12 2 -5 17 -9 33 -9 26 0 34 -9 30 -33 -1 -5 3 -6 9 -2 6 3 7
11 4 17 -4 6 2 6 15 -1 11 -7 21 -9 21 -6 0 4 7 0 15 -9 8 -8 24 -13 35 -11
11 2 20 0 20 -6 0 -5 7 -9 16 -9 8 0 13 -3 11 -7 -3 -5 9 -9 26 -10 17 -1 35
-8 41 -14 8 -9 8 -10 0 -6 -6 3 -11 -1 -11 -9 0 -10 4 -11 11 -4 13 13 43 13
48 0 2 -5 15 -11 31 -12 15 -1 27 -6 27 -10 0 -4 7 -8 16 -8 9 0 12 -5 8 -12
-5 -10 -4 -10 6 -1 12 11 40 3 60 -17 3 -3 12 -6 20 -8 8 -1 49 -16 90 -32 41
-16 85 -31 98 -35 12 -4 20 -10 18 -14 -3 -4 5 -7 17 -6 34 3 40 -5 20 -28
-14 -17 -11 -16 11 3 24 21 28 22 22 6 -5 -16 -4 -17 9 -6 12 10 16 9 21 -3 3
-9 12 -13 20 -10 8 3 14 0 14 -7 0 -6 4 -9 9 -6 11 7 42 -4 37 -13 -2 -3 6 -7
17 -7 47 -4 65 -9 60 -17 -3 -4 3 -7 13 -5 12 2 18 -2 16 -11 -3 -12 0 -12 12
-1 12 9 16 9 16 1 0 -7 4 -10 9 -7 4 3 24 -3 45 -13 23 -12 36 -15 36 -7 0 6
7 2 16 -9 8 -11 17 -19 19 -17 14 7 25 0 19 -10 -5 -9 -2 -9 9 1 11 9 17 10
17 2 0 -6 3 -10 8 -10 23 4 52 -2 48 -10 -3 -5 3 -11 14 -14 11 -3 18 -1 14 4
-3 5 0 9 5 9 6 0 11 -5 11 -11 0 -6 7 -9 15 -5 8 3 15 1 15 -4 0 -6 11 -10 25
-10 14 0 25 -3 25 -7 0 -5 12 -9 27 -10 15 0 29 -6 31 -12 2 -6 8 -9 12 -6 5
3 11 1 15 -5 3 -5 0 -10 -7 -10 -9 0 -9 -3 2 -10 10 -6 11 -10 3 -10 -7 0 -13
-9 -13 -19 0 -11 -7 -26 -15 -34 -11 -12 -12 -17 -2 -20 8 -4 9 -8 1 -14 -6
-4 -11 -15 -12 -23 -2 -40 -7 -60 -14 -60 -4 0 -7 -3 -7 -7 1 -5 1 -21 0 -36
-1 -20 -5 -26 -13 -21 -10 6 -10 5 -1 -8 7 -8 11 -17 8 -19 -5 -6 -15 -83 -20
-151 -2 -29 -4 -57 -4 -61 -1 -5 -5 -5 -11 -2 -5 3 -10 1 -10 -5 0 -6 -4 -9
-8 -6 -5 3 -20 -1 -35 -9 -20 -10 -27 -11 -28 -2 0 7 -3 5 -6 -3 -7 -17 -33
-45 -33 -34 0 4 -11 -5 -24 -19 -13 -14 -27 -23 -30 -20 -3 4 -6 -1 -6 -9 0
-9 -10 -23 -22 -31 -13 -8 -43 -34 -68 -57 -106 -98 -118 -108 -124 -103 -3 4
-6 -2 -6 -12 0 -10 -2 -16 -5 -13 -7 7 -135 -122 -135 -135 0 -4 -5 -5 -12 -1
-7 5 -9 2 -5 -9 3 -9 0 -18 -9 -21 -9 -3 -12 -11 -8 -18 4 -7 4 -10 -1 -6 -5
5 -17 -6 -27 -23 -12 -19 -23 -27 -31 -23 -7 5 -5 0 3 -11 13 -17 13 -18 -1
-13 -13 5 -16 2 -12 -13 3 -11 -1 -21 -11 -25 -9 -3 -14 -10 -11 -15 5 -7 -11
-45 -25 -59 -3 -3 -10 -14 -17 -25 -6 -11 -16 -19 -22 -17 -6 1 -10 -2 -9 -7
4 -12 -42 -51 -59 -51 -7 0 -16 -7 -19 -15 -4 -8 -10 -13 -14 -10 -5 3 -11 1
-15 -5 -9 -15 -27 -12 -20 3 4 6 0 4 -8 -5 -15 -19 -62 -14 -50 6 4 6 1 6 -9
-2 -12 -10 -18 -9 -28 3 -7 8 -19 15 -26 15 -8 0 -14 3 -14 8 0 4 -14 15 -31
24 -18 11 -27 22 -23 29 4 7 3 9 -4 5 -6 -3 -15 2 -21 11 -6 10 -11 14 -11 8
0 -5 -13 10 -29 35 -29 46 -47 89 -43 103 1 4 -1 7 -6 7 -4 0 -13 15 -21 33
-28 65 -72 83 -114 46 -18 -17 -18 -59 2 -110 5 -15 7 -30 4 -33 -4 -3 -2 -6
4 -6 6 0 16 -15 23 -32 8 -18 20 -41 28 -50 8 -10 11 -18 7 -18 -5 0 0 -7 11
-15 10 -8 15 -15 10 -15 -5 0 0 -8 10 -17 11 -10 26 -31 34 -48 8 -16 20 -33
27 -38 7 -4 10 -14 7 -22 -4 -8 -2 -15 3 -15 13 0 36 -87 38 -140 1 -47 -22
-113 -37 -104 -4 3 -8 0 -8 -6 0 -6 -9 -20 -20 -32 -11 -13 -20 -16 -20 -9 0
9 -5 8 -16 -3 -8 -9 -20 -14 -25 -11 -5 4 -9 0 -9 -7 0 -10 -3 -9 -9 1 -7 11
-13 12 -24 3 -7 -6 -29 -13 -48 -14 -19 -2 -37 -7 -41 -13 -5 -6 -8 -4 -8 5 0
13 -1 13 -10 0 -5 -8 -10 -10 -10 -3 0 6 -9 9 -20 6 -11 -3 -20 -9 -20 -14 0
-4 -9 -6 -19 -4 -13 2 -26 -5 -36 -21 -9 -14 -20 -22 -25 -19 -6 4 -10 1 -10
-5 0 -6 -5 -8 -12 -4 -6 4 -8 3 -5 -4 9 -13 -2 -42 -15 -42 -6 0 -7 7 -4 16 3
8 2 12 -4 9 -6 -3 -10 3 -10 14 0 10 -4 21 -10 23 -5 2 -11 12 -13 23 -1 11
-15 41 -31 67 -15 26 -25 52 -21 58 3 5 1 10 -5 10 -7 0 -9 7 -6 16 3 8 2 13
-3 10 -7 -5 -21 14 -25 34 -2 8 -46 102 -67 141 -10 20 -19 47 -19 58 0 12 -4
20 -9 17 -12 -8 -23 22 -14 37 3 7 2 9 -2 4 -12 -10 -48 70 -39 86 4 7 4 9 -1
5 -10 -9 -35 16 -35 36 0 9 -5 16 -11 16 -8 0 -8 4 0 14 10 12 8 17 -10 26
-15 9 -18 14 -10 20 9 5 8 9 -4 14 -9 3 -13 10 -10 16 3 5 2 10 -3 10 -15 0
-21 37 -8 50 8 8 7 10 -5 5 -12 -4 -18 1 -21 17 -3 13 -9 32 -13 42 -7 15 -5
17 6 11 8 -4 4 2 -8 14 -13 12 -23 31 -23 42 0 11 -4 29 -10 39 -5 10 -11 34
-12 53 -2 19 -6 33 -10 30 -7 -4 -11 16 -11 60 0 9 -3 17 -7 17 -4 0 -11 7
-14 16 -3 8 -2 12 3 9 5 -3 12 -1 16 5 3 5 0 10 -8 10 -10 0 -13 7 -10 20 3
12 0 20 -7 20 -9 0 -9 4 1 17 10 11 10 14 2 9 -7 -4 -13 -2 -13 3 0 6 6 11 13
11 6 0 4 5 -5 11 -10 5 -18 15 -18 20 0 6 4 8 9 4 5 -3 13 0 17 6 4 7 3 10 -2
7 -5 -3 -15 0 -21 8 -8 8 -9 15 -3 19 6 3 10 11 10 16 0 6 -5 7 -12 3 -7 -5
-9 -2 -5 8 3 9 0 21 -6 27 -8 8 -7 11 4 11 12 0 12 2 -1 10 -10 6 -11 10 -2
10 6 0 12 5 12 11 0 5 -4 7 -10 4 -6 -3 -7 1 -4 9 4 10 1 16 -7 16 -9 0 -10 3
-4 8 15 11 17 32 2 32 -8 0 -7 4 3 10 13 8 13 10 1 10 -12 0 -12 3 -3 12 14
14 16 32 3 24 -12 -8 -8 47 4 56 6 5 6 8 -1 8 -12 0 -12 29 0 48 4 7 2 12 -6
12 -9 0 -9 3 2 10 13 9 13 10 0 10 -13 0 -13 1 0 10 13 9 13 10 0 10 -9 0 -11
3 -5 8 6 4 11 25 12 47 2 76 3 76 16 69 7 -5 6 0 -3 11 -14 17 -13 18 3 12 16
-6 16 -5 1 18 -10 15 -12 25 -5 25 6 0 11 11 11 25 0 14 5 25 11 25 8 0 8 4 0
14 -8 10 -9 16 -1 21 6 3 8 11 5 16 -4 5 -1 9 6 9 7 0 9 3 6 7 -4 3 -1 13 6
21 10 13 9 14 -3 7 -12 -6 -13 -5 -2 6 6 7 12 21 12 32 0 11 4 15 12 11 8 -5
9 -2 4 11 -4 10 0 28 10 43 9 13 11 21 4 17 -8 -5 -7 0 2 14 7 12 16 21 21 21
4 0 6 4 3 8 -12 19 73 110 88 94 4 -3 4 2 0 12 -5 14 -4 17 4 12 7 -4 12 -2
12 4 0 6 4 9 9 6 5 -3 11 1 15 9 3 8 12 12 19 9 8 -3 17 2 20 10 9 22 28 20
21 -1 -2 -10 1 -8 7 5 7 12 17 22 23 23 38 3 57 6 63 12 3 4 13 1 21 -6 13 -9
14 -9 8 0z m1978 -638 c-2 -4 5 -5 16 -2 11 3 27 0 35 -7 8 -7 15 -9 16 -4 0
5 4 -1 9 -13 6 -13 15 -20 23 -17 8 3 20 -2 27 -11 9 -11 9 -15 1 -15 -7 0 -9
-5 -5 -11 5 -8 9 -7 14 1 6 10 15 6 34 -14 15 -14 24 -26 21 -26 -4 0 0 -7 7
-15 32 -36 38 -45 38 -65 0 -11 4 -20 10 -20 5 0 7 -7 4 -15 -4 -8 -1 -15 5
-15 6 0 8 -6 5 -14 -3 -8 -1 -17 5 -21 6 -3 11 -19 11 -35 0 -16 5 -32 11 -35
6 -4 8 -13 5 -21 -3 -8 0 -14 6 -14 7 0 6 -5 -2 -15 -11 -13 -10 -14 6 -8 17
6 18 5 4 -12 -9 -11 -10 -16 -2 -11 8 5 12 0 12 -18 0 -13 -6 -27 -12 -30 -7
-3 -4 -4 7 -3 15 1 21 -5 23 -28 2 -16 8 -36 14 -42 6 -7 8 -20 4 -28 -3 -9 1
-18 9 -21 11 -5 12 -10 4 -26 -8 -15 -8 -19 0 -14 7 5 11 -2 11 -18 0 -14 5
-26 11 -26 6 0 9 -9 6 -20 -3 -11 -1 -23 4 -26 6 -3 8 -11 6 -17 -2 -7 2 -27
10 -44 7 -18 10 -33 7 -33 -4 0 -2 -6 4 -12 5 -7 12 -26 15 -43 3 -16 10 -43
16 -59 9 -22 9 -32 0 -40 -9 -8 -10 -6 -5 9 5 15 4 17 -4 9 -13 -13 -50 -7
-50 8 0 5 -4 6 -10 3 -5 -3 -10 -2 -10 4 0 6 -7 8 -15 5 -8 -4 -15 -1 -15 5 0
6 -5 11 -12 11 -19 0 -138 62 -138 72 0 5 -4 7 -9 3 -5 -3 -16 2 -24 10 -9 8
-20 15 -26 15 -6 0 -11 5 -11 10 0 6 -7 10 -15 10 -8 0 -15 5 -15 10 0 6 -5
10 -12 10 -20 0 -142 134 -170 187 -21 39 -24 53 -15 62 9 10 9 12 -2 9 -15
-3 -32 57 -26 92 1 8 -3 18 -9 22 -7 5 -7 8 -1 8 6 0 10 21 9 50 0 28 3 50 9
50 5 0 4 7 -3 15 -9 11 -9 15 -1 15 7 0 9 5 6 10 -3 6 0 10 7 11 10 0 10 2 0
6 -6 2 -10 9 -6 14 3 5 8 22 11 37 3 15 6 34 8 42 2 8 4 21 4 28 1 7 5 11 10
7 5 -3 13 0 17 6 4 8 3 9 -4 5 -7 -4 -12 -1 -12 8 0 9 6 16 13 17 9 0 9 2 0 5
-8 4 -8 14 3 40 8 18 15 37 15 41 4 27 11 30 34 19 13 -6 21 -14 19 -17z
m2106 -221 c0 16 62 16 79 0 9 -9 12 -9 7 -1 -7 13 157 23 200 11 14 -4 24 -2
24 4 0 6 6 5 15 -2 12 -10 15 -10 15 1 0 12 2 12 9 0 6 -10 10 -10 16 -2 5 9
13 8 31 -3 17 -12 22 -13 18 -3 -6 17 57 10 68 -7 5 -7 8 -5 8 5 0 13 26 18
50 9 3 -1 18 -1 34 0 16 1 33 -4 37 -12 7 -10 9 -8 9 7 0 17 2 17 10 5 7 -11
10 -11 10 -2 0 7 5 10 10 7 6 -4 7 -12 4 -18 -5 -8 -3 -8 7 1 14 13 73 17 65
4 -3 -5 1 -9 9 -9 8 0 12 4 9 9 -3 4 7 8 21 8 14 0 24 -4 21 -9 -7 -10 20 -9
30 2 10 10 36 9 30 -1 -3 -5 1 -9 9 -9 8 0 12 4 10 8 -3 4 2 9 10 13 10 3 15
-1 15 -12 0 -12 3 -13 8 -5 4 7 27 11 55 10 26 -1 47 3 48 8 0 6 4 1 9 -10 5
-11 9 -14 9 -6 1 8 8 11 21 8 11 -3 20 0 20 6 0 8 3 8 8 2 9 -12 102 -14 102
-2 0 4 6 5 12 1 19 -12 48 -12 48 -1 0 6 10 2 22 -9 12 -10 18 -13 14 -7 -9
16 45 14 56 -2 5 -5 8 -1 8 10 0 11 4 16 8 10 4 -5 18 -10 32 -10 14 0 28 5
32 10 4 6 8 1 8 -10 0 -15 2 -17 9 -6 5 8 16 11 24 8 9 -3 18 -1 21 6 2 7 5 4
5 -5 1 -10 6 -18 12 -18 5 0 8 4 4 9 -8 14 58 10 67 -3 6 -8 8 -7 8 1 0 16
179 15 199 -1 11 -8 13 -8 7 1 -5 9 7 12 48 10 46 -2 52 -4 43 -16 -10 -12 -9
-13 5 -5 22 12 100 5 92 -8 -4 -6 3 -5 15 1 17 9 24 8 41 -9 15 -15 20 -16 20
-5 0 9 6 12 15 9 8 -4 13 -9 11 -13 -2 -3 8 -7 22 -7 51 -3 77 -7 122 -19 25
-7 51 -10 59 -7 8 2 11 0 7 -6 -4 -6 2 -8 16 -4 11 3 19 1 16 -4 -4 -5 5 -10
18 -11 49 -4 55 -7 50 -19 -3 -8 0 -11 8 -8 7 3 20 -2 29 -10 9 -9 21 -16 27
-16 6 0 8 -4 5 -10 -3 -5 -1 -10 4 -10 6 0 11 -9 11 -21 0 -11 5 -17 10 -14 6
3 10 -3 10 -15 0 -13 -4 -19 -12 -14 -7 4 -8 3 -4 -4 4 -6 13 -9 21 -5 10 3
15 -2 15 -16 0 -12 5 -21 11 -21 8 0 8 -4 0 -14 -8 -9 -8 -15 -2 -18 6 -1 12
-17 14 -33 2 -17 7 -36 11 -43 4 -7 5 -16 1 -21 -3 -6 -8 -29 -11 -53 -4 -24
-11 -46 -18 -50 -8 -6 -7 -8 2 -8 7 0 10 -5 7 -10 -4 -6 -12 -7 -18 -3 -7 4
-6 0 2 -10 9 -12 10 -17 2 -17 -7 0 -9 -4 -6 -10 3 -5 1 -10 -5 -10 -6 0 -9
-4 -6 -8 3 -5 -1 -20 -9 -35 -7 -14 -11 -28 -7 -31 3 -3 0 -6 -7 -6 -7 0 -10
-4 -6 -9 3 -5 1 -12 -4 -16 -6 -3 -7 -13 -4 -22 5 -12 3 -14 -7 -8 -10 6 -12
4 -7 -8 4 -10 1 -17 -5 -17 -6 0 -8 -3 -5 -7 4 -3 0 -17 -8 -30 -9 -13 -12
-23 -8 -23 4 0 -2 -7 -13 -16 -10 -8 -13 -13 -6 -9 6 3 12 1 12 -4 0 -6 -5
-11 -11 -11 -5 0 -7 -4 -4 -10 3 -5 -2 -10 -12 -10 -15 0 -16 -2 -3 -10 11 -7
11 -10 2 -10 -7 0 -11 -4 -8 -8 2 -4 -1 -21 -9 -37 -7 -17 -20 -46 -29 -67 -9
-20 -16 -41 -16 -47 0 -6 -5 -11 -10 -11 -6 0 -9 -3 -9 -7 4 -22 -2 -43 -10
-38 -5 3 -12 1 -16 -5 -3 -5 -1 -10 5 -10 6 0 8 -5 5 -10 -4 -6 -12 -7 -18 -3
-7 4 -6 0 2 -10 9 -11 10 -17 2 -17 -6 0 -11 -6 -11 -12 -1 -7 -9 -31 -20 -53
-11 -22 -19 -44 -20 -49 0 -5 -8 -18 -17 -29 -10 -11 -13 -17 -6 -14 6 4 2
-11 -8 -33 -13 -26 -24 -38 -32 -34 -9 5 -9 4 0 -6 9 -9 4 -24 -18 -62 -16
-27 -29 -53 -29 -57 0 -5 -7 -12 -16 -15 -8 -3 -12 -10 -9 -16 3 -5 1 -10 -6
-10 -7 0 -9 -3 -6 -7 4 -3 -1 -12 -11 -20 -9 -8 -11 -11 -3 -7 9 5 12 3 7 -4
-4 -7 -14 -12 -22 -12 -9 0 -14 -6 -11 -12 2 -7 -7 -23 -20 -35 -13 -13 -21
-23 -18 -23 10 0 -63 -76 -187 -193 -17 -16 -36 -26 -44 -23 -8 3 -11 0 -7
-10 3 -8 -1 -14 -10 -14 -8 0 -18 -7 -21 -16 -4 -9 -9 -14 -12 -11 -3 2 -17
-6 -31 -19 -14 -13 -29 -21 -34 -18 -5 3 -9 -2 -9 -11 0 -9 -4 -13 -10 -10 -5
3 -10 1 -10 -6 0 -7 -3 -10 -6 -7 -3 4 -22 -5 -42 -18 -20 -14 -41 -23 -48
-20 -7 3 -11 0 -8 -7 5 -14 -51 -41 -66 -32 -6 4 -7 -1 -3 -11 4 -12 3 -15 -5
-10 -7 4 -12 3 -12 -3 0 -9 -40 -27 -48 -22 -2 1 -9 -5 -16 -14 -6 -9 -21 -17
-34 -18 -12 0 -22 -7 -22 -14 0 -7 -9 -13 -20 -13 -11 0 -20 -4 -20 -8 0 -14
-69 -40 -74 -28 -2 6 -5 3 -5 -8 -1 -12 -6 -16 -17 -12 -12 5 -15 2 -10 -9 3
-9 2 -13 -3 -10 -5 3 -12 1 -16 -5 -4 -6 -11 -8 -16 -5 -5 4 -9 1 -9 -5 0 -6
-4 -9 -9 -6 -5 3 -14 -1 -21 -9 -7 -8 -18 -15 -25 -15 -6 0 -20 -9 -30 -20
-24 -27 -30 -20 -29 37 1 26 -3 54 -9 61 -5 7 -7 15 -4 18 3 3 -3 14 -14 25
-11 11 -17 25 -13 31 4 6 3 8 -3 5 -5 -4 -19 2 -29 11 -10 10 -27 21 -37 25
-11 4 -15 12 -11 18 4 7 3 9 -3 6 -13 -8 -41 13 -56 43 -11 21 -9 27 12 48 14
14 31 22 42 19 12 -3 16 0 12 9 -3 8 1 14 10 14 9 0 23 7 32 16 8 9 22 13 30
10 8 -3 17 0 21 6 5 7 2 8 -7 4 -8 -4 -5 -1 5 8 10 8 23 13 27 10 5 -3 9 0 9
6 0 7 6 10 12 8 7 -3 22 4 32 14 11 10 26 16 34 13 7 -2 11 -1 8 4 -3 5 2 15
11 22 14 12 16 12 9 -1 -4 -8 4 -1 19 15 14 17 30 29 35 27 6 -1 10 5 10 13 0
8 5 15 11 15 5 0 7 5 4 10 -3 6 2 10 11 10 10 0 15 3 12 6 -4 3 19 31 50 61
32 31 50 52 42 48 -8 -4 -1 5 15 20 17 14 24 23 16 19 -10 -5 -10 -1 2 17 8
13 18 37 21 52 4 15 11 25 15 22 5 -3 7 5 3 17 -3 12 -1 19 4 15 6 -3 9 10 9
29 -1 19 3 34 9 34 6 0 4 5 -4 10 -8 5 -10 10 -5 10 6 0 11 18 11 39 0 26 -4
38 -10 33 -6 -3 -31 -7 -56 -8 -73 -4 -95 -8 -103 -21 -4 -7 -15 -13 -23 -13
-8 0 -12 -4 -9 -10 6 -9 -7 -14 -27 -11 -4 0 -5 -5 -2 -13 3 -7 -2 -19 -10
-26 -9 -7 -13 -17 -9 -23 4 -6 0 -8 -9 -4 -11 4 -14 1 -11 -12 3 -11 -2 -21
-12 -25 -9 -3 -13 -10 -10 -16 3 -5 1 -10 -4 -10 -6 0 -10 -3 -9 -8 3 -8 -9
-24 -59 -80 -18 -19 -33 -31 -33 -26 0 5 -7 0 -15 -10 -13 -17 -15 -18 -15 -3
0 16 -1 16 -20 0 -20 -18 -60 -25 -60 -11 0 4 -5 8 -11 8 -5 0 -7 -5 -3 -12 5
-7 3 -8 -7 -3 -14 9 -37 14 -76 17 -13 1 -23 6 -23 11 0 4 -9 5 -20 2 -14 -4
-20 -2 -20 9 0 8 -5 18 -12 22 -7 5 -8 3 -3 -6 11 -18 -36 -1 -53 19 -8 9 -11
10 -7 4 4 -9 1 -11 -9 -7 -9 3 -16 10 -16 15 0 5 -9 9 -21 9 -11 0 -17 5 -14
10 3 6 0 10 -8 10 -20 0 -68 50 -60 63 3 5 1 7 -5 3 -11 -7 -52 39 -52 60 0 7
-6 15 -12 17 -10 4 -10 8 0 15 11 7 9 10 -7 15 -18 4 -27 28 -22 60 0 4 -7 7
-17 7 -13 0 -14 2 -4 9 11 7 11 11 -2 23 -11 12 -12 18 -3 28 8 9 8 11 1 7
-14 -8 -22 9 -19 40 1 12 -2 20 -7 17 -7 -4 -13 26 -9 49 0 4 -4 7 -9 7 -6 0
-10 5 -10 11 0 5 5 7 11 4 13 -8 -12 37 -26 47 -6 5 -4 8 5 8 13 0 13 1 0 10
-8 5 -11 12 -7 16 4 4 2 13 -4 21 -6 7 -9 13 -6 13 3 0 0 15 -7 33 -7 17 -11
38 -9 45 3 6 1 12 -4 12 -5 0 -10 8 -11 18 -4 34 -8 52 -15 58 -4 4 -1 14 6
22 8 10 8 13 1 9 -14 -8 -22 9 -19 40 1 12 -2 20 -7 17 -4 -3 -8 6 -8 20 0 14
-4 28 -10 31 -5 3 -10 13 -10 21 0 8 -6 22 -12 30 -29 34 -33 40 -36 54 -2 8
-8 17 -13 18 -5 2 -7 8 -3 13 3 5 0 9 -5 9 -6 0 -11 9 -11 20 0 11 -4 20 -10
20 -6 0 -9 6 -7 13 1 6 -4 11 -11 9 -8 -1 -11 2 -8 7 4 5 -1 17 -10 25 -8 9
-12 16 -7 16 4 0 0 5 -9 11 -10 5 -18 17 -18 24 0 8 -5 15 -11 15 -5 0 -7 5
-4 10 3 6 -1 10 -10 10 -9 0 -13 5 -10 10 3 6 1 10 -5 10 -7 0 -9 7 -6 16 3 8
2 12 -4 9 -6 -3 -10 -1 -10 5 0 6 -4 8 -10 5 -5 -3 -10 1 -10 10 0 9 -4 13
-10 10 -5 -3 -10 1 -10 9 0 9 -7 16 -16 16 -10 0 -14 5 -10 16 3 9 2 12 -5 9
-15 -10 -41 16 -34 33 5 12 3 13 -10 2 -14 -11 -14 -10 -5 14 5 15 9 30 9 34
-1 4 0 9 1 12 4 11 9 47 12 78 1 17 6 32 10 32 4 0 5 6 2 14 -4 11 1 14 20 12
14 -2 26 2 26 8 0 6 7 2 15 -8 8 -11 15 -14 15 -8z m-265 -31 c-7 -56 -14 -79
-32 -101 -15 -17 -15 -18 -1 -8 14 11 16 11 13 -5 -2 -10 -4 -19 -5 -20 -2 -2
-4 -7 -5 -13 -1 -5 -4 -12 -5 -15 -3 -7 -7 -22 -9 -36 0 -5 -6 -7 -12 -3 -8 4
-8 0 0 -15 10 -17 9 -22 -4 -27 -8 -4 -23 0 -33 7 -15 13 -16 12 -3 -3 7 -10
21 -18 30 -18 14 -1 14 -2 -2 -11 -9 -6 -15 -14 -12 -20 4 -5 2 -9 -4 -9 -5 0
-12 6 -14 13 -4 9 -6 9 -6 0 -1 -6 4 -15 9 -18 14 -9 -20 -65 -40 -65 -11 0
-12 -2 -3 -8 13 -8 4 -22 -89 -124 -28 -32 -55 -58 -60 -58 -4 0 -21 -15 -38
-32 -27 -31 -30 -32 -52 -19 -21 13 -22 13 -10 -1 11 -14 8 -19 -18 -38 -16
-12 -30 -18 -30 -14 0 4 -7 -1 -15 -12 -8 -10 -15 -15 -15 -10 0 5 -7 3 -15
-4 -8 -6 -20 -8 -26 -4 -7 4 -10 3 -7 -2 3 -5 0 -15 -8 -22 -8 -7 -14 -10 -14
-6 0 3 -8 0 -17 -7 -14 -12 -16 -12 -9 1 7 13 6 13 -6 0 -7 -8 -20 -16 -28
-18 -8 -2 -17 -8 -18 -13 -2 -5 -8 -7 -13 -3 -5 3 -9 0 -9 -7 0 -7 -7 -4 -15
7 -13 16 -14 17 -9 1 4 -10 3 -17 -2 -16 -5 1 -22 -3 -37 -9 -37 -16 -70 -15
-64 1 2 6 9 12 15 12 5 0 14 4 19 9 4 5 3 7 -2 3 -6 -3 -17 -2 -24 2 -10 6 -9
11 3 24 14 13 14 16 0 21 -8 3 -12 11 -8 17 7 13 16 73 15 107 -1 16 3 21 12
16 9 -6 9 -4 1 7 -12 15 -13 47 -1 66 4 6 3 14 -3 18 -7 4 -7 12 0 25 5 10 10
28 10 39 0 12 4 21 9 21 4 0 8 10 7 23 -1 14 4 21 13 19 11 -2 12 0 3 10 -8
11 -6 22 9 47 11 18 18 36 15 39 -3 3 6 15 19 28 14 13 25 28 25 35 0 14 46
59 61 59 5 0 9 7 9 16 0 8 4 13 9 9 6 -3 14 3 20 13 5 9 25 24 45 32 20 7 36
17 36 22 0 4 4 8 9 8 5 0 22 5 38 12 15 6 34 10 41 9 6 -1 12 3 12 8 0 5 9 8
20 6 11 -2 20 0 20 5 0 4 9 6 20 3 11 -3 20 -1 20 4 0 5 28 9 63 10 34 0 77 3
96 6 19 3 43 1 54 -5 13 -6 17 -6 13 0 -3 6 0 12 6 15 25 8 37 -5 33 -36z
m-2094 -411 c5 -6 9 -18 9 -29 0 -10 5 -15 10 -12 6 3 10 0 10 -8 0 -8 7 -20
15 -27 9 -7 13 -15 11 -17 -3 -3 7 -17 22 -31 26 -26 26 -28 10 -44 -10 -10
-23 -18 -29 -18 -5 0 -8 -4 -5 -9 3 -5 -29 -35 -72 -67 -42 -33 -79 -63 -80
-67 -2 -4 -11 -2 -19 4 -11 10 -13 10 -11 0 2 -7 -6 -18 -17 -24 -10 -7 -25
-18 -33 -24 -7 -7 -20 -13 -28 -13 -8 0 -14 -4 -14 -10 0 -5 -9 -10 -20 -10
-11 0 -20 -4 -20 -10 0 -5 -4 -10 -9 -10 -5 0 -22 -5 -38 -11 -15 -6 -28 -9
-28 -8 0 1 -10 -3 -23 -10 -18 -10 -26 -10 -38 0 -12 10 -13 9 -8 -6 6 -15 3
-17 -14 -13 -12 4 -22 3 -22 -1 0 -4 -13 -7 -30 -6 -16 0 -30 3 -30 7 0 5 -6
8 -14 8 -8 0 -16 5 -18 12 -6 18 3 59 12 53 4 -3 8 7 8 21 0 15 4 29 9 33 6 3
14 17 18 30 7 25 15 36 48 72 9 10 17 22 17 25 0 14 97 134 113 140 10 3 16 8
13 12 -8 7 83 72 101 72 8 0 11 5 8 10 -5 8 9 15 18 8 2 -2 37 26 62 49 7 7
14 10 17 8 2 -2 12 7 23 19 l20 23 18 -56 c10 -31 23 -60 28 -65z m2209 58 c0
-8 5 -14 11 -14 7 0 9 -9 6 -21 -4 -15 1 -22 19 -29 13 -5 25 -14 25 -20 1 -5
2 -16 3 -22 0 -7 8 -13 16 -13 8 0 16 -6 16 -12 1 -7 2 -17 3 -23 0 -5 8 -10
17 -10 8 0 12 -4 9 -10 -3 -5 -1 -10 4 -10 6 0 11 -7 11 -15 0 -8 5 -15 10
-15 6 0 10 -7 10 -15 0 -8 5 -15 11 -15 5 0 7 -4 4 -10 -3 -5 -1 -10 5 -10 6
0 8 -4 5 -10 -3 -5 -1 -10 5 -10 6 0 8 -4 5 -10 -3 -5 -1 -10 5 -10 7 0 10 -7
6 -15 -3 -8 -1 -15 4 -15 6 0 10 -8 10 -18 0 -10 6 -24 13 -31 10 -11 9 -12
-3 -6 -12 6 -13 5 -2 -6 6 -7 12 -21 12 -31 0 -10 5 -18 11 -18 8 0 8 -4 0
-14 -8 -10 -9 -15 -1 -18 6 -2 12 -11 14 -20 1 -10 5 -21 9 -24 4 -4 7 -25 7
-46 0 -29 3 -37 13 -32 7 5 7 1 -2 -10 -13 -15 -13 -19 0 -27 10 -6 10 -9 2
-9 -7 0 -13 -7 -13 -16 0 -8 -4 -12 -10 -9 -5 3 -10 1 -10 -4 0 -6 -8 -20 -17
-31 -13 -14 -19 -16 -25 -7 -5 8 -8 5 -8 -8 0 -17 -2 -17 -10 -5 -6 9 -10 11
-10 3 0 -7 -7 -10 -15 -7 -9 4 -15 0 -15 -7 0 -12 -2 -12 -9 0 -6 9 -11 10
-15 2 -5 -7 -13 -8 -24 -2 -9 4 -25 7 -34 6 -10 -2 -19 1 -19 6 -1 5 -2 13 -3
18 0 5 -4 13 -8 17 -4 3 -5 -3 -3 -15 4 -21 1 -20 -55 10 -33 17 -73 45 -90
60 -16 16 -30 26 -30 23 0 -3 -16 9 -35 28 -19 18 -40 38 -47 44 -7 6 -24 25
-38 42 -14 17 -31 31 -39 32 -7 0 -11 6 -8 15 4 8 1 17 -5 21 -7 4 -8 3 -4 -4
4 -7 2 -12 -3 -12 -10 0 -15 14 -12 33 1 5 -3 6 -8 3 -5 -4 -12 -2 -16 3 -6
10 28 51 43 51 4 0 19 13 34 30 14 16 28 26 32 23 4 -4 9 3 13 15 3 12 12 22
19 22 8 0 14 5 14 11 0 7 8 19 18 28 9 9 30 35 46 59 16 23 32 42 37 42 5 0 5
7 2 17 -4 11 -3 14 5 9 7 -4 12 -1 12 10 0 14 2 15 18 3 13 -10 12 -8 -3 10
l-20 24 24 -6 c18 -4 21 -3 12 6 -16 16 -14 27 5 27 8 0 13 4 10 9 -8 13 4 42
15 35 5 -3 9 -12 9 -20z m-2001 -311 c20 -20 37 -36 39 -35 8 7 22 0 22 -12 0
-10 7 -13 20 -11 11 2 18 0 15 -6 -4 -5 0 -9 8 -9 7 0 24 -10 37 -22 14 -13
25 -21 25 -20 0 6 60 -22 66 -31 3 -5 9 -8 12 -8 11 1 107 -46 103 -50 -3 -2
7 -5 21 -6 14 0 28 -5 32 -10 3 -4 13 -10 21 -12 37 -8 33 -7 88 -28 9 -3 20
-5 25 -5 7 2 11 -13 8 -37 -2 -7 3 -10 9 -6 13 8 9 -17 -5 -27 -6 -5 -5 -8 4
-8 11 0 11 -3 0 -17 -10 -11 -10 -14 -1 -9 12 7 13 2 15 -56 0 -14 -5 -22 -12
-20 -7 1 -10 -2 -6 -7 3 -6 11 -8 18 -5 8 3 13 -3 13 -15 0 -11 -5 -17 -11
-14 -5 3 -4 0 3 -8 15 -16 16 -33 1 -23 -8 4 -8 0 0 -15 7 -11 13 -39 14 -61
2 -21 6 -42 10 -46 4 -4 2 -13 -4 -21 -9 -10 -8 -13 2 -13 9 -1 5 -8 -10 -20
-13 -11 -19 -20 -14 -20 5 0 14 5 21 12 9 9 12 7 12 -12 -1 -64 5 -120 13
-120 5 0 4 -7 -3 -15 -10 -12 -10 -15 0 -15 10 0 10 -3 0 -15 -9 -10 -9 -15
-1 -15 6 0 11 -7 11 -16 0 -10 -5 -14 -16 -10 -8 3 -12 2 -9 -4 3 -6 12 -10
18 -10 9 0 12 -16 11 -50 -1 -32 2 -50 9 -50 8 0 8 -3 2 -8 -13 -9 -18 -32 -7
-32 4 0 8 -9 9 -20 1 -13 -2 -18 -10 -13 -7 4 -6 0 2 -10 7 -9 11 -17 9 -17
-3 0 -2 -18 2 -40 5 -27 4 -40 -4 -41 -7 0 -7 -2 1 -5 6 -3 9 -16 7 -31 -3
-14 1 -32 8 -41 11 -13 11 -14 -1 -7 -11 6 -13 4 -8 -8 3 -9 1 -18 -6 -21 -7
-2 -4 -5 6 -5 18 -1 23 -16 7 -26 -5 -3 -6 -15 -1 -28 5 -12 5 -32 0 -45 -6
-15 -5 -21 1 -17 6 3 10 -1 10 -10 0 -10 -5 -13 -12 -9 -7 4 -5 -2 5 -13 10
-12 14 -24 9 -27 -5 -3 -6 -25 -3 -48 4 -24 6 -50 6 -58 0 -8 4 -18 10 -22 6
-5 6 -8 0 -8 -6 0 -10 -28 -9 -65 1 -35 -2 -62 -6 -60 -4 3 -4 -11 0 -30 4
-19 4 -35 0 -35 -14 0 -21 -32 -10 -45 5 -6 8 -14 5 -16 -4 -5 -15 -100 -19
-176 -2 -23 -11 -54 -20 -69 -10 -14 -13 -23 -7 -20 8 5 8 0 -1 -18 -6 -14
-15 -26 -20 -26 -4 0 -8 -7 -8 -16 0 -8 -4 -13 -9 -9 -5 3 -12 -4 -16 -15 -4
-11 -11 -18 -16 -14 -5 3 -6 10 -3 16 4 7 2 8 -5 4 -6 -4 -9 -11 -6 -16 3 -5
-5 -12 -17 -16 -33 -11 -42 -11 -50 1 -5 6 -8 4 -8 -6 0 -20 -38 -18 -51 2 -5
8 -9 9 -9 3 0 -9 -12 -9 -42 -2 -24 5 -50 11 -57 12 -8 2 -17 8 -19 16 -4 10
-6 10 -12 0 -5 -8 -15 -10 -26 -5 -11 4 -30 10 -44 12 -14 2 -27 8 -28 14 -2
5 -8 6 -13 3 -6 -3 -16 0 -24 6 -12 10 -15 10 -15 -1 0 -10 -2 -11 -8 -2 -4 6
-24 14 -44 18 -21 4 -36 10 -34 14 2 3 -14 7 -37 9 -23 1 -44 7 -48 13 -3 5
-10 9 -15 8 -16 -4 -104 25 -104 34 0 4 -4 6 -8 3 -5 -3 -21 1 -35 9 -28 15
-30 15 -48 15 -5 0 -7 5 -3 12 4 7 3 8 -5 4 -12 -8 -111 22 -121 36 -3 4 -17
8 -32 10 -14 2 -33 10 -42 17 -9 7 -16 11 -16 7 0 -4 -10 0 -23 9 -13 8 -27
12 -30 8 -4 -3 -7 -1 -7 5 0 7 -7 12 -15 12 -8 0 -15 5 -15 10 0 6 -5 10 -11
10 -5 0 -7 -5 -3 -12 4 -7 -6 -2 -23 10 -17 12 -38 22 -47 22 -9 0 -16 5 -16
11 0 5 -4 7 -10 4 -5 -3 -10 -1 -10 5 0 6 -4 8 -10 5 -5 -3 -10 -2 -10 3 0 8
-25 21 -52 26 -4 0 -13 7 -19 14 -7 6 -19 12 -27 12 -7 0 -10 5 -6 12 4 7 3 8
-4 4 -12 -7 -112 43 -112 57 0 4 -4 6 -9 2 -5 -3 -16 2 -24 10 -9 8 -21 15
-27 15 -6 0 -8 5 -4 11 4 7 1 10 -7 7 -8 -3 -31 6 -51 19 -21 12 -42 23 -48
23 -5 0 -10 7 -10 16 0 10 -6 14 -15 10 -8 -3 -15 -1 -15 4 0 6 -7 10 -15 10
-8 0 -15 8 -15 18 0 14 -2 15 -10 2 -9 -13 -10 -13 -10 0 0 8 -14 21 -31 29
-18 8 -34 22 -36 32 -3 10 -9 16 -14 14 -10 -7 -31 30 -21 40 4 3 2 6 -3 5
-24 -5 -36 2 -47 25 -6 13 -20 27 -30 31 -15 4 -16 9 -8 19 8 10 8 15 -1 21
-8 4 -9 3 -5 -4 13 -22 -5 -12 -35 18 -18 17 -27 35 -23 41 4 8 3 9 -4 5 -18
-11 -65 44 -52 60 8 8 8 14 0 19 -6 4 -9 3 -8 -2 3 -8 -5 -13 -23 -13 -5 0 -8
4 -5 9 3 5 -1 12 -10 15 -9 4 -14 9 -10 13 3 3 -4 11 -17 18 -12 6 -21 17 -19
24 1 7 -1 10 -5 8 -5 -3 -14 1 -21 9 -7 8 -10 14 -6 14 4 0 -3 8 -15 19 -12
10 -20 25 -18 32 2 8 2 11 0 7 -3 -5 -9 -8 -14 -8 -6 0 -7 5 -4 10 3 6 1 10
-4 10 -6 0 -11 6 -11 13 0 8 16 12 48 12 44 -1 53 2 86 32 8 7 17 9 21 5 4 -4
5 -2 4 3 -4 15 11 55 22 55 5 0 8 6 7 13 -2 6 3 11 10 9 8 -1 11 1 8 6 -6 11
15 62 26 62 4 0 5 7 1 15 -3 9 -2 15 3 13 5 -2 10 0 12 4 6 16 55 63 63 61 4
-2 5 5 2 15 -3 9 -2 14 2 10 5 -5 14 1 22 11 8 12 22 18 33 16 11 -2 19 1 17
7 -4 22 91 32 171 19 2 -1 1 -5 -2 -10 -3 -4 6 -7 19 -5 14 1 25 -2 25 -7 0
-6 5 -7 10 -4 6 3 10 2 10 -3 0 -5 14 -15 30 -22 23 -10 28 -16 20 -25 -9 -11
-7 -12 9 -8 15 4 21 1 21 -11 0 -11 -5 -15 -12 -10 -8 4 -9 3 -5 -2 5 -5 16
-9 25 -9 9 0 17 -4 17 -10 1 -5 7 -21 14 -34 9 -17 10 -21 1 -16 -7 4 -5 -3 4
-17 9 -13 14 -34 11 -46 -2 -12 1 -22 6 -22 6 0 7 -4 4 -10 -3 -5 -1 -10 5
-10 6 0 9 -4 6 -9 -9 -15 22 -46 46 -46 33 0 74 46 69 78 0 4 3 7 7 7 8 0 5
90 -3 99 -3 2 0 10 7 18 9 11 9 13 -1 11 -12 -3 -43 67 -33 77 3 3 0 5 -7 5
-9 0 -9 5 0 21 7 13 7 19 1 15 -6 -3 -13 -2 -17 4 -3 5 0 10 7 10 10 0 10 2 1
8 -7 4 -15 23 -18 41 -3 19 -8 38 -11 43 -3 4 -1 8 5 8 5 0 8 11 5 24 -2 15 2
26 11 30 12 4 14 10 5 25 -7 14 -7 22 1 26 5 4 14 18 20 32 5 13 13 21 19 18
6 -4 7 1 3 11 -4 12 -3 15 5 10 7 -4 12 -2 12 4 0 6 6 8 13 4 6 -4 9 -3 4 1
-8 9 20 45 35 45 5 0 28 13 51 28 23 15 56 34 72 42 17 8 51 27 76 41 36 21
50 24 58 16 9 -9 11 -8 6 5 -5 13 0 19 22 25 15 4 31 7 35 8 3 0 10 4 15 9 5
5 2 6 -6 1 -9 -5 -12 -4 -8 2 4 6 18 14 33 17 14 4 31 11 37 17 29 24 89 59
101 59 8 0 16 7 20 15 3 8 15 15 26 15 12 0 18 5 15 10 -3 6 -2 10 3 10 6 0
24 13 42 30 18 16 36 28 40 25 4 -3 7 3 6 13 0 9 5 16 12 14 7 -1 15 5 18 13
9 23 24 18 63 -22z m1521 -194 c0 -6 15 -25 33 -41 17 -17 31 -38 29 -47 -2
-12 -1 -13 6 -3 6 9 25 -4 71 -48 34 -33 67 -60 72 -60 6 0 7 -4 4 -10 -3 -5
0 -10 7 -10 8 0 20 -9 28 -20 8 -11 19 -20 24 -20 5 0 16 -6 25 -14 9 -8 28
-26 43 -39 15 -14 29 -22 32 -19 3 3 6 1 6 -5 0 -5 18 -18 40 -29 26 -12 38
-24 35 -33 -5 -11 -3 -12 10 -1 9 8 15 8 15 2 0 -6 8 -13 19 -17 10 -3 23 -15
30 -28 6 -12 9 -14 7 -4 -5 15 -2 16 15 7 11 -6 16 -16 13 -22 -4 -7 -3 -8 4
-4 7 4 12 2 12 -4 0 -6 4 -9 9 -5 5 3 15 -1 23 -8 7 -7 21 -16 31 -20 10 -4
15 -11 12 -17 -3 -5 0 -7 8 -4 16 6 50 -23 42 -36 -3 -4 3 -6 14 -3 11 3 21
-2 25 -12 3 -9 10 -13 16 -10 6 3 13 -1 16 -9 3 -9 13 -16 20 -16 8 0 17 -7
20 -15 3 -8 14 -17 25 -20 10 -4 19 -13 19 -21 0 -8 4 -14 10 -14 17 0 58 -53
52 -68 -3 -8 -1 -13 4 -9 5 3 14 -6 21 -19 6 -13 7 -21 2 -18 -5 3 -1 -10 10
-30 14 -23 17 -38 10 -42 -8 -5 -8 -8 0 -13 16 -10 22 -82 8 -100 -9 -12 -9
-13 1 -7 6 4 12 2 12 -3 0 -6 -4 -11 -8 -11 -4 0 -8 -8 -9 -17 -2 -36 -14 -78
-24 -81 -5 -2 -6 -9 -2 -15 4 -6 0 -8 -9 -4 -11 4 -15 0 -14 -10 3 -21 -31
-56 -46 -47 -6 4 -8 3 -5 -3 8 -13 -40 -56 -53 -48 -6 4 -10 -1 -10 -10 0 -9
-4 -13 -10 -10 -5 3 -10 1 -10 -5 0 -6 -4 -9 -9 -5 -5 3 -12 1 -16 -5 -3 -5
-15 -10 -25 -10 -10 0 -20 -5 -22 -10 -2 -6 -13 -12 -26 -13 -12 0 -22 -5 -22
-10 0 -4 -4 -6 -9 -2 -5 3 -12 1 -16 -5 -4 -6 -11 -8 -16 -5 -5 4 -9 1 -9 -5
0 -7 -7 -9 -16 -6 -8 3 -13 2 -9 -3 3 -5 -8 -15 -24 -22 -16 -7 -28 -16 -25
-20 2 -4 -3 -9 -11 -13 -8 -3 -15 -12 -15 -21 0 -8 -4 -15 -8 -15 -16 0 -13
-70 3 -76 8 -3 13 -10 10 -14 -8 -13 18 -18 68 -15 32 2 45 -1 40 -9 -4 -7 -2
-7 7 1 7 6 19 9 26 6 8 -3 14 0 14 7 0 10 3 10 15 0 11 -9 15 -9 15 -1 0 7 4
10 9 6 5 -3 12 -1 15 4 7 10 25 9 43 -2 9 -6 11 -3 6 9 -4 11 -3 15 4 11 6 -4
13 -3 15 3 1 5 16 11 32 12 15 1 31 8 33 15 3 7 8 11 13 8 4 -2 22 7 41 21 18
13 39 22 46 20 7 -3 12 -1 10 3 -1 5 10 20 26 34 15 14 27 23 27 19 0 -4 4 -2
8 4 9 13 104 79 115 79 4 0 12 7 17 15 8 12 10 12 10 1 0 -10 3 -11 13 -2 24
19 105 2 92 -20 -4 -5 -1 -9 5 -9 6 0 8 -4 5 -10 -3 -5 0 -10 7 -10 9 0 9 -3
-2 -10 -11 -7 -12 -10 -2 -10 10 0 9 -5 -3 -17 -16 -15 -16 -17 3 -32 11 -9
23 -26 26 -38 4 -11 13 -24 21 -27 8 -3 15 -11 15 -18 0 -7 15 -20 32 -28 32
-16 54 -68 23 -56 -9 3 -15 0 -15 -8 0 -7 -18 -19 -40 -26 -22 -7 -40 -16 -40
-19 0 -6 -60 -32 -69 -30 -2 0 -7 -3 -10 -8 -3 -4 -17 -14 -30 -21 -19 -11
-22 -11 -16 0 3 7 1 6 -7 -3 -7 -8 -28 -22 -45 -30 -18 -7 -33 -18 -33 -22 0
-5 -4 -5 -10 -2 -5 3 -10 0 -10 -7 -1 -8 -7 -5 -17 7 -9 11 -14 14 -11 5 6
-18 -12 -38 -30 -32 -6 2 -12 -1 -12 -6 0 -9 -37 -25 -52 -23 -5 1 -8 -4 -8
-10 0 -5 -4 -7 -10 -4 -5 3 -10 3 -10 -2 0 -8 -36 -26 -77 -38 -13 -3 -23 -11
-23 -16 0 -5 -3 -8 -7 -8 -20 3 -34 -2 -28 -10 3 -6 -4 -8 -15 -6 -11 2 -20 1
-20 -3 0 -4 -14 -13 -30 -21 -26 -11 -33 -11 -48 1 -15 11 -16 11 -4 -3 10
-14 10 -18 -5 -24 -10 -5 -25 -9 -33 -11 -8 -2 -16 -8 -18 -14 -2 -5 -8 -7
-14 -4 -5 4 -23 -3 -39 -15 -15 -11 -34 -21 -42 -21 -7 0 -17 -3 -21 -7 -4 -5
-11 -9 -14 -9 -26 -5 -52 -18 -52 -24 0 -5 -8 -7 -17 -6 -10 2 -24 -3 -31 -11
-8 -7 -18 -11 -23 -8 -5 4 -9 1 -9 -5 0 -6 -4 -9 -9 -6 -5 3 -14 -1 -21 -9
-11 -13 -14 -13 -26 2 -12 15 -13 15 -8 2 4 -12 -4 -20 -28 -28 -18 -7 -34
-12 -35 -11 -2 0 -19 -9 -39 -20 -19 -11 -33 -16 -29 -11 3 6 -7 4 -21 -4 -15
-8 -31 -12 -36 -9 -4 3 -8 1 -8 -3 0 -5 -11 -10 -25 -11 -38 -3 -49 -6 -57
-17 -4 -5 -8 1 -8 15 l-1 25 -10 -24 c-6 -15 -15 -21 -24 -17 -8 3 -15 0 -16
-7 0 -9 -2 -9 -5 0 -4 9 -13 9 -32 2 -15 -6 -29 -10 -32 -9 -3 2 -15 6 -27 11
-16 6 -21 5 -17 -4 4 -12 -43 -16 -62 -5 -5 3 -18 4 -28 2 -11 -1 -28 2 -39 8
-14 7 -17 7 -13 -1 4 -6 2 -11 -3 -11 -6 0 -11 5 -11 11 0 5 -5 7 -11 3 -7 -4
-20 4 -31 17 -15 20 -17 21 -11 4 6 -19 -10 -3 -57 53 -6 6 -12 25 -13 41 -1
16 -5 27 -9 24 -13 -7 -9 12 5 26 10 11 9 12 -2 6 -11 -6 -13 0 -9 29 2 20 2
36 -2 36 -3 0 -5 25 -5 55 -1 32 4 55 10 55 5 0 4 4 -3 9 -17 10 -22 41 -10
64 6 11 5 17 -2 17 -13 0 -9 32 5 42 7 5 6 8 0 8 -6 0 -10 12 -10 28 1 15 -4
33 -9 41 -9 12 -7 13 8 8 16 -6 17 -5 6 8 -7 8 -9 15 -4 15 5 0 2 5 -6 10 -13
8 -13 10 -1 10 12 0 12 3 3 12 -9 9 -9 15 1 27 6 8 7 12 2 9 -6 -4 -10 7 -9
28 1 19 -3 34 -9 34 -6 0 -2 7 9 16 10 8 14 13 7 10 -15 -8 -21 21 -12 62 4
17 3 32 -2 32 -5 0 -4 11 1 25 7 17 6 25 -1 25 -8 0 -7 5 1 15 10 12 10 15 -1
15 -11 0 -11 2 1 10 10 6 11 10 3 10 -7 0 -13 5 -13 11 0 5 5 7 10 4 6 -4 5 4
-1 19 -10 20 -9 29 2 43 8 9 9 14 3 10 -12 -7 -12 21 0 41 4 6 4 12 -1 12 -4
0 -7 42 -6 92 1 51 3 93 4 93 1 0 5 65 9 173 2 37 7 62 14 62 7 0 7 3 1 8 -12
9 -13 32 -1 51 5 8 4 16 -4 21 -7 4 -8 10 -3 13 5 3 9 22 8 42 0 19 4 35 10
35 5 0 3 5 -5 10 -8 5 -10 10 -5 10 6 0 10 18 9 40 0 21 3 37 8 34 4 -3 8 0 8
5 0 6 -5 11 -11 11 -8 0 -7 6 2 17 12 14 12 16 0 8 -11 -6 -12 -5 -5 6 5 8 9
38 11 67 1 29 8 61 15 70 9 11 10 14 1 8 -7 -4 -13 -3 -13 1 0 5 6 15 13 22
10 11 9 14 -1 18 -10 4 -10 8 0 21 11 13 11 15 -2 8 -12 -7 -12 -5 1 8 9 10
25 19 35 21 10 2 20 4 22 5 1 2 7 4 12 5 6 1 13 4 18 5 4 1 11 2 16 1 4 -1 14
4 22 10 8 6 14 9 14 5 0 -4 13 0 30 9 16 8 32 16 35 16 2 0 22 7 42 16 21 9
40 17 43 18 3 0 15 6 28 13 12 7 22 9 22 5 0 -4 5 0 11 10 11 19 59 24 59 6z
m1310 -1359 c0 -5 -5 -10 -11 -10 -5 0 -7 5 -4 10 3 6 8 10 11 10 2 0 4 -4 4
-10z m150 -164 c0 -11 -19 -15 -25 -6 -3 5 1 10 9 10 9 0 16 -2 16 -4z"/>
<path d="M6419 9058 c-5 -18 -6 -38 -1 -34 7 8 12 36 6 36 -2 0 -4 -1 -5 -2z"/>
<path d="M6376 9008 c3 -5 10 -6 15 -3 13 9 11 12 -6 12 -8 0 -12 -4 -9 -9z"/>
<path d="M6330 8969 c0 -5 5 -7 10 -4 6 3 10 8 10 11 0 2 -4 4 -10 4 -5 0 -10
-5 -10 -11z"/>
<path d="M7316 8763 c-6 -14 -5 -15 5 -6 7 7 10 15 7 18 -3 3 -9 -2 -12 -12z"/>
<path d="M7516 8588 c3 -5 10 -6 15 -3 13 9 11 12 -6 12 -8 0 -12 -4 -9 -9z"/>
<path d="M6395 8299 c-4 -6 -5 -12 -2 -15 2 -3 7 2 10 11 7 17 1 20 -8 4z"/>
<path d="M6293 8265 c0 -8 4 -12 9 -9 5 3 6 10 3 15 -9 13 -12 11 -12 -6z"/>
<path d="M7950 8166 c0 -2 8 -10 18 -17 15 -13 16 -12 3 4 -13 16 -21 21 -21
13z"/>
<path d="M7959 8103 c-13 -16 -12 -17 4 -4 9 7 17 15 17 17 0 8 -8 3 -21 -13z"/>
<path d="M7950 8049 c0 -5 5 -7 10 -4 6 3 10 8 10 11 0 2 -4 4 -10 4 -5 0 -10
-5 -10 -11z"/>
<path d="M7595 7690 c3 -5 8 -10 11 -10 2 0 4 5 4 10 0 6 -5 10 -11 10 -5 0
-7 -4 -4 -10z"/>
<path d="M7310 7629 c0 -5 5 -7 10 -4 6 3 10 8 10 11 0 2 -4 4 -10 4 -5 0 -10
-5 -10 -11z"/>
<path d="M7254 7612 c4 -3 14 -7 22 -8 9 -1 13 0 10 4 -4 3 -14 7 -22 8 -9 1
-13 0 -10 -4z"/>
<path d="M7335 7581 c-3 -5 -2 -12 3 -15 5 -3 9 1 9 9 0 17 -3 19 -12 6z"/>
<path d="M6917 7523 c-10 -9 -9 -23 1 -23 5 0 9 7 9 15 0 17 -1 18 -10 8z"/>
<path d="M6915 7201 c-3 -5 -2 -12 3 -15 5 -3 9 1 9 9 0 17 -3 19 -12 6z"/>
<path d="M6975 7170 c3 -5 8 -10 11 -10 2 0 4 5 4 10 0 6 -5 10 -11 10 -5 0
-7 -4 -4 -10z"/>
<path d="M6196 7157 c3 -10 9 -15 12 -12 3 3 0 11 -7 18 -10 9 -11 8 -5 -6z"/>
<path d="M6825 7030 c-3 -6 1 -7 9 -4 18 7 21 14 7 14 -6 0 -13 -4 -16 -10z"/>
<path d="M6193 6995 c0 -8 4 -12 9 -9 5 3 6 10 3 15 -9 13 -12 11 -12 -6z"/>
<path d="M6066 6748 c3 -5 10 -6 15 -3 13 9 11 12 -6 12 -8 0 -12 -4 -9 -9z"/>
<path d="M6014 6606 c1 -8 5 -18 8 -22 4 -3 5 1 4 10 -1 8 -5 18 -8 22 -4 3
-5 -1 -4 -10z"/>
<path d="M6070 6570 c0 -5 5 -10 11 -10 5 0 7 5 4 10 -3 6 -8 10 -11 10 -2 0
-4 -4 -4 -10z"/>
<path d="M6015 6530 c3 -5 8 -10 11 -10 2 0 4 5 4 10 0 6 -5 10 -11 10 -5 0
-7 -4 -4 -10z"/>
<path d="M6096 6503 c-6 -14 -5 -15 5 -6 7 7 10 15 7 18 -3 3 -9 -2 -12 -12z"/>
<path d="M5966 6488 c3 -5 10 -6 15 -3 13 9 11 12 -6 12 -8 0 -12 -4 -9 -9z"/>
<path d="M5970 6330 c0 -5 5 -10 11 -10 5 0 7 5 4 10 -3 6 -8 10 -11 10 -2 0
-4 -4 -4 -10z"/>
<path d="M5145 9070 c-3 -6 1 -7 9 -4 18 7 21 14 7 14 -6 0 -13 -4 -16 -10z"/>
<path d="M5350 9046 c0 -2 8 -10 18 -17 15 -13 16 -12 3 4 -13 16 -21 21 -21
13z"/>
<path d="M4314 8916 c1 -8 5 -18 8 -22 4 -3 5 1 4 10 -1 8 -5 18 -8 22 -4 3
-5 -1 -4 -10z"/>
<path d="M5470 8911 c0 -6 4 -13 10 -16 6 -3 7 1 4 9 -7 18 -14 21 -14 7z"/>
<path d="M5499 8863 c-13 -16 -12 -17 4 -4 9 7 17 15 17 17 0 8 -8 3 -21 -13z"/>
<path d="M4137 8825 c-4 -8 -3 -16 1 -19 4 -3 9 4 9 15 2 23 -3 25 -10 4z"/>
<path d="M4173 8799 c-2 -23 3 -25 10 -4 4 8 3 16 -1 19 -4 3 -9 -4 -9 -15z"/>
<path d="M4170 8676 c0 -2 7 -7 16 -10 8 -3 12 -2 9 4 -6 10 -25 14 -25 6z"/>
<path d="M4595 8321 c-3 -5 -2 -12 3 -15 5 -3 9 1 9 9 0 17 -3 19 -12 6z"/>
<path d="M4293 8301 c0 -11 5 -18 9 -15 4 3 5 11 1 19 -7 21 -12 19 -10 -4z"/>
<path d="M4330 8249 c0 -5 5 -7 10 -4 6 3 10 8 10 11 0 2 -4 4 -10 4 -5 0 -10
-5 -10 -11z"/>
<path d="M4405 8230 c-3 -6 1 -7 9 -4 18 7 21 14 7 14 -6 0 -13 -4 -16 -10z"/>
<path d="M4453 7879 c-2 -23 3 -25 10 -4 4 8 3 16 -1 19 -4 3 -9 -4 -9 -15z"/>
<path d="M4390 7830 c0 -5 5 -10 11 -10 5 0 7 5 4 10 -3 6 -8 10 -11 10 -2 0
-4 -4 -4 -10z"/>
<path d="M4435 7830 c3 -5 8 -10 11 -10 2 0 4 5 4 10 0 6 -5 10 -11 10 -5 0
-7 -4 -4 -10z"/>
<path d="M4595 7550 c-3 -5 -1 -10 4 -10 6 0 11 5 11 10 0 6 -2 10 -4 10 -3 0
-8 -4 -11 -10z"/>
<path d="M5697 7525 c-4 -8 -3 -16 1 -19 4 -3 9 4 9 15 2 23 -3 25 -10 4z"/>
<path d="M5035 6690 c-3 -5 -1 -10 4 -10 6 0 11 5 11 10 0 6 -2 10 -4 10 -3 0
-8 -4 -11 -10z"/>
<path d="M5515 6590 c3 -5 8 -10 11 -10 2 0 4 5 4 10 0 6 -5 10 -11 10 -5 0
-7 -4 -4 -10z"/>
<path d="M5114 6506 c1 -8 5 -18 8 -22 4 -3 5 1 4 10 -1 8 -5 18 -8 22 -4 3
-5 -1 -4 -10z"/>
<path d="M5450 6490 c0 -5 5 -10 11 -10 5 0 7 5 4 10 -3 6 -8 10 -11 10 -2 0
-4 -4 -4 -10z"/>
<path d="M3695 8570 c-3 -5 -1 -10 4 -10 6 0 11 5 11 10 0 6 -2 10 -4 10 -3 0
-8 -4 -11 -10z"/>
<path d="M3695 8541 c-3 -5 -2 -12 3 -15 5 -3 9 1 9 9 0 17 -3 19 -12 6z"/>
<path d="M3606 8528 c3 -5 10 -6 15 -3 13 9 11 12 -6 12 -8 0 -12 -4 -9 -9z"/>
<path d="M3815 8490 c-3 -5 -1 -10 4 -10 6 0 11 5 11 10 0 6 -2 10 -4 10 -3 0
-8 -4 -11 -10z"/>
<path d="M3675 8479 c-4 -6 -5 -12 -2 -15 2 -3 7 2 10 11 7 17 1 20 -8 4z"/>
<path d="M3565 8470 c-3 -6 1 -7 9 -4 18 7 21 14 7 14 -6 0 -13 -4 -16 -10z"/>
<path d="M3435 8419 c-4 -6 -5 -12 -2 -15 2 -3 7 2 10 11 7 17 1 20 -8 4z"/>
<path d="M3575 8399 c-4 -6 -5 -12 -2 -15 2 -3 7 2 10 11 7 17 1 20 -8 4z"/>
<path d="M4016 8252 c-3 -5 1 -9 9 -9 8 0 12 4 9 9 -3 4 -7 8 -9 8 -2 0 -6 -4
-9 -8z"/>
<path d="M4015 8221 c-3 -5 -2 -12 3 -15 5 -3 9 1 9 9 0 17 -3 19 -12 6z"/>
<path d="M3230 8151 c0 -6 4 -13 10 -16 6 -3 7 1 4 9 -7 18 -14 21 -14 7z"/>
<path d="M3996 8072 c-3 -5 1 -9 9 -9 8 0 12 4 9 9 -3 4 -7 8 -9 8 -2 0 -6 -4
-9 -8z"/>
<path d="M3894 7986 c1 -8 5 -18 8 -22 4 -3 5 1 4 10 -1 8 -5 18 -8 22 -4 3
-5 -1 -4 -10z"/>
<path d="M3933 7965 c0 -8 4 -12 9 -9 5 3 6 10 3 15 -9 13 -12 11 -12 -6z"/>
<path d="M3593 7903 c0 -9 4 -10 14 -2 7 6 13 12 13 14 0 1 -6 2 -13 2 -8 0
-14 -6 -14 -14z"/>
<path d="M2970 7836 c0 -2 7 -7 16 -10 8 -3 12 -2 9 4 -6 10 -25 14 -25 6z"/>
<path d="M4019 7538 c-5 -18 -6 -38 -1 -34 7 8 12 36 6 36 -2 0 -4 -1 -5 -2z"/>
<path d="M2713 7345 c0 -8 4 -12 9 -9 5 3 6 10 3 15 -9 13 -12 11 -12 -6z"/>
<path d="M2520 6910 c8 -5 20 -10 25 -10 6 0 3 5 -5 10 -8 5 -19 10 -25 10 -5
0 -3 -5 5 -10z"/>
<path d="M2490 6850 c0 -5 5 -10 11 -10 5 0 7 5 4 10 -3 6 -8 10 -11 10 -2 0
-4 -4 -4 -10z"/>
<path d="M2537 6785 c-4 -8 -3 -16 1 -19 4 -3 9 4 9 15 2 23 -3 25 -10 4z"/>
<path d="M3150 6509 c0 -5 5 -7 10 -4 6 3 10 8 10 11 0 2 -4 4 -10 4 -5 0 -10
-5 -10 -11z"/>
<path d="M3200 6470 c-9 -6 -10 -10 -3 -10 6 0 15 5 18 10 8 12 4 12 -15 0z"/>
<path d="M4495 6230 c3 -5 8 -10 11 -10 2 0 4 5 4 10 0 6 -5 10 -11 10 -5 0
-7 -4 -4 -10z"/>
<path d="M4276 6072 c-3 -5 1 -9 9 -9 8 0 12 4 9 9 -3 4 -7 8 -9 8 -2 0 -6 -4
-9 -8z"/>
<path d="M4339 6078 c-5 -18 -6 -38 -1 -34 7 8 12 36 6 36 -2 0 -4 -1 -5 -2z"/>
<path d="M8235 7630 c-3 -5 -1 -10 4 -10 6 0 11 5 11 10 0 6 -2 10 -4 10 -3 0
-8 -4 -11 -10z"/>
<path d="M8270 7615 c0 -7 30 -13 34 -7 3 4 -4 9 -15 9 -10 1 -19 0 -19 -2z"/>
<path d="M8335 7610 c-3 -5 -1 -10 4 -10 6 0 11 5 11 10 0 6 -2 10 -4 10 -3 0
-8 -4 -11 -10z"/>
<path d="M7835 7150 c-3 -5 -1 -10 4 -10 6 0 11 5 11 10 0 6 -2 10 -4 10 -3 0
-8 -4 -11 -10z"/>
<path d="M7453 6965 c0 -8 4 -12 9 -9 5 3 6 10 3 15 -9 13 -12 11 -12 -6z"/>
<path d="M7406 6952 c-3 -5 1 -9 9 -9 8 0 12 4 9 9 -3 4 -7 8 -9 8 -2 0 -6 -4
-9 -8z"/>
<path d="M7630 6931 c0 -6 4 -13 10 -16 6 -3 7 1 4 9 -7 18 -14 21 -14 7z"/>
<path d="M7480 6916 c0 -2 8 -10 18 -17 15 -13 16 -12 3 4 -13 16 -21 21 -21
13z"/>
<path d="M7315 6901 c-3 -5 -2 -12 3 -15 5 -3 9 1 9 9 0 17 -3 19 -12 6z"/>
<path d="M8913 6575 c0 -8 4 -12 9 -9 5 3 6 10 3 15 -9 13 -12 11 -12 -6z"/>
<path d="M8976 6283 c-6 -14 -5 -15 5 -6 7 7 10 15 7 18 -3 3 -9 -2 -12 -12z"/>
<path d="M8995 5990 c3 -5 8 -10 11 -10 2 0 4 5 4 10 0 6 -5 10 -11 10 -5 0
-7 -4 -4 -10z"/>
<path d="M6510 5871 c0 -6 4 -13 10 -16 6 -3 7 1 4 9 -7 18 -14 21 -14 7z"/>
<path d="M6455 5850 c-3 -5 -1 -10 4 -10 6 0 11 5 11 10 0 6 -2 10 -4 10 -3 0
-8 -4 -11 -10z"/>
<path d="M6450 5809 c0 -5 5 -7 10 -4 6 3 10 8 10 11 0 2 -4 4 -10 4 -5 0 -10
-5 -10 -11z"/>
<path d="M8990 5791 c0 -6 4 -13 10 -16 6 -3 7 1 4 9 -7 18 -14 21 -14 7z"/>
<path d="M7665 5770 c-3 -6 1 -7 9 -4 18 7 21 14 7 14 -6 0 -13 -4 -16 -10z"/>
<path d="M6476 5752 c-3 -5 1 -9 9 -9 8 0 12 4 9 9 -3 4 -7 8 -9 8 -2 0 -6 -4
-9 -8z"/>
<path d="M6867 5749 c7 -7 15 -10 18 -7 3 3 -2 9 -12 12 -14 6 -15 5 -6 -5z"/>
<path d="M6533 5725 c0 -8 4 -12 9 -9 5 3 6 10 3 15 -9 13 -12 11 -12 -6z"/>
<path d="M8896 5708 c3 -5 10 -6 15 -3 13 9 11 12 -6 12 -8 0 -12 -4 -9 -9z"/>
<path d="M8395 5701 c-3 -5 -2 -12 3 -15 5 -3 9 1 9 9 0 17 -3 19 -12 6z"/>
<path d="M8935 5690 c3 -5 8 -10 11 -10 2 0 4 5 4 10 0 6 -5 10 -11 10 -5 0
-7 -4 -4 -10z"/>
<path d="M4475 7230 c3 -5 8 -10 11 -10 2 0 4 5 4 10 0 6 -5 10 -11 10 -5 0
-7 -4 -4 -10z"/>
<path d="M4410 7210 c0 -5 5 -10 11 -10 5 0 7 5 4 10 -3 6 -8 10 -11 10 -2 0
-4 -4 -4 -10z"/>
<path d="M4415 7169 c-3 -4 2 -6 10 -5 21 3 28 13 10 13 -9 0 -18 -4 -20 -8z"/>
<path d="M4460 7156 c0 -2 8 -10 18 -17 15 -13 16 -12 3 4 -13 16 -21 21 -21
13z"/>
<path d="M6766 6772 c-3 -5 1 -9 9 -9 8 0 12 4 9 9 -3 4 -7 8 -9 8 -2 0 -6 -4
-9 -8z"/>
<path d="M6815 6770 c3 -5 8 -10 11 -10 2 0 4 5 4 10 0 6 -5 10 -11 10 -5 0
-7 -4 -4 -10z"/>
<path d="M6860 6756 c0 -2 8 -10 18 -17 15 -13 16 -12 3 4 -13 16 -21 21 -21
13z"/>
<path d="M6636 6343 c-6 -14 -5 -15 5 -6 7 7 10 15 7 18 -3 3 -9 -2 -12 -12z"/>
<path d="M6315 6239 c-4 -6 -5 -12 -2 -15 2 -3 7 2 10 11 7 17 1 20 -8 4z"/>
<path d="M6335 6070 c-3 -5 -1 -10 4 -10 6 0 11 5 11 10 0 6 -2 10 -4 10 -3 0
-8 -4 -11 -10z"/>
<path d="M6295 6010 c-3 -5 -1 -10 4 -10 6 0 11 5 11 10 0 6 -2 10 -4 10 -3 0
-8 -4 -11 -10z"/>
<path d="M5356 6232 c-3 -5 1 -9 9 -9 8 0 12 4 9 9 -3 4 -7 8 -9 8 -2 0 -6 -4
-9 -8z"/>
<path d="M4716 6103 c-6 -14 -5 -15 5 -6 7 7 10 15 7 18 -3 3 -9 -2 -12 -12z"/>
<path d="M4664 6072 c4 -3 14 -7 22 -8 9 -1 13 0 10 4 -4 3 -14 7 -22 8 -9 1
-13 0 -10 -4z"/>
<path d="M4610 6010 c0 -5 5 -10 11 -10 5 0 7 5 4 10 -3 6 -8 10 -11 10 -2 0
-4 -4 -4 -10z"/>
<path d="M4646 6008 c3 -5 10 -6 15 -3 13 9 11 12 -6 12 -8 0 -12 -4 -9 -9z"/>
<path d="M4655 5970 c-3 -5 -1 -10 4 -10 6 0 11 5 11 10 0 6 -2 10 -4 10 -3 0
-8 -4 -11 -10z"/>
<path d="M5336 5972 c-3 -5 1 -9 9 -9 8 0 12 4 9 9 -3 4 -7 8 -9 8 -2 0 -6 -4
-9 -8z"/>
<path d="M4710 5950 c0 -5 5 -10 11 -10 5 0 7 5 4 10 -3 6 -8 10 -11 10 -2 0
-4 -4 -4 -10z"/>
<path d="M4770 5869 c0 -5 5 -7 10 -4 6 3 10 8 10 11 0 2 -4 4 -10 4 -5 0 -10
-5 -10 -11z"/>
<path d="M5890 6009 c0 -5 5 -7 10 -4 6 3 10 8 10 11 0 2 -4 4 -10 4 -5 0 -10
-5 -10 -11z"/>
<path d="M5815 5970 c-3 -5 -1 -10 4 -10 6 0 11 5 11 10 0 6 -2 10 -4 10 -3 0
-8 -4 -11 -10z"/>
<path d="M6073 5865 c0 -8 4 -12 9 -9 5 3 6 10 3 15 -9 13 -12 11 -12 -6z"/>
<path d="M5770 5769 c0 -5 5 -7 10 -4 6 3 10 8 10 11 0 2 -4 4 -10 4 -5 0 -10
-5 -10 -11z"/>
<path d="M6110 5735 c0 -7 30 -13 34 -7 3 4 -4 9 -15 9 -10 1 -19 0 -19 -2z"/>
<path d="M5750 5710 c0 -5 5 -10 11 -10 5 0 7 5 4 10 -3 6 -8 10 -11 10 -2 0
-4 -4 -4 -10z"/>
<path d="M6015 5710 c3 -5 8 -10 11 -10 2 0 4 5 4 10 0 6 -5 10 -11 10 -5 0
-7 -4 -4 -10z"/>
<path d="M5850 5690 c0 -5 5 -10 11 -10 5 0 7 5 4 10 -3 6 -8 10 -11 10 -2 0
-4 -4 -4 -10z"/>
<path d="M5936 5692 c-3 -4 4 -9 15 -9 23 -2 25 3 4 10 -8 4 -16 3 -19 -1z"/>
<path d="M6130 5690 c0 -5 5 -10 11 -10 5 0 7 5 4 10 -3 6 -8 10 -11 10 -2 0
-4 -4 -4 -10z"/>
<path d="M2400 6025 c-7 -9 -11 -17 -9 -20 3 -2 10 5 17 15 14 24 10 26 -8 5z"/>
<path d="M2606 6012 c-3 -5 1 -9 9 -9 8 0 12 4 9 9 -3 4 -7 8 -9 8 -2 0 -6 -4
-9 -8z"/>
<path d="M2206 5952 c-3 -5 1 -9 9 -9 8 0 12 4 9 9 -3 4 -7 8 -9 8 -2 0 -6 -4
-9 -8z"/>
<path d="M2670 5950 c0 -5 5 -10 11 -10 5 0 7 5 4 10 -3 6 -8 10 -11 10 -2 0
-4 -4 -4 -10z"/>
<path d="M3746 5548 c3 -5 10 -6 15 -3 13 9 11 12 -6 12 -8 0 -12 -4 -9 -9z"/>
<path d="M4014 5492 c4 -3 14 -7 22 -8 9 -1 13 0 10 4 -4 3 -14 7 -22 8 -9 1
-13 0 -10 -4z"/>
<path d="M4047 5429 c7 -7 15 -10 18 -7 3 3 -2 9 -12 12 -14 6 -15 5 -6 -5z"/>
<path d="M4033 5005 c0 -8 4 -12 9 -9 5 3 6 10 3 15 -9 13 -12 11 -12 -6z"/>
<path d="M2080 4750 c-9 -6 -10 -10 -3 -10 6 0 15 5 18 10 8 12 4 12 -15 0z"/>
<path d="M2107 4669 c7 -7 15 -10 18 -7 3 3 -2 9 -12 12 -14 6 -15 5 -6 -5z"/>
<path d="M2095 4590 c-3 -5 -1 -10 4 -10 6 0 11 5 11 10 0 6 -2 10 -4 10 -3 0
-8 -4 -11 -10z"/>
<path d="M3253 4205 c0 -8 4 -12 9 -9 5 3 6 10 3 15 -9 13 -12 11 -12 -6z"/>
<path d="M3080 4190 c-9 -6 -10 -10 -3 -10 6 0 15 5 18 10 8 12 4 12 -15 0z"/>
<path d="M3135 4190 c3 -5 8 -10 11 -10 2 0 4 5 4 10 0 6 -5 10 -11 10 -5 0
-7 -4 -4 -10z"/>
<path d="M2354 3986 c1 -8 5 -18 8 -22 4 -3 5 1 4 10 -1 8 -5 18 -8 22 -4 3
-5 -1 -4 -10z"/>
<path d="M2435 3861 c-3 -5 -2 -12 3 -15 5 -3 9 1 9 9 0 17 -3 19 -12 6z"/>
<path d="M2455 3810 c-3 -5 -1 -10 4 -10 6 0 11 5 11 10 0 6 -2 10 -4 10 -3 0
-8 -4 -11 -10z"/>
<path d="M2490 3769 c0 -5 5 -7 10 -4 6 3 10 8 10 11 0 2 -4 4 -10 4 -5 0 -10
-5 -10 -11z"/>
<path d="M4335 5370 c-3 -5 -1 -10 4 -10 6 0 11 5 11 10 0 6 -2 10 -4 10 -3 0
-8 -4 -11 -10z"/>
<path d="M4450 5329 c0 -5 5 -7 10 -4 6 3 10 8 10 11 0 2 -4 4 -10 4 -5 0 -10
-5 -10 -11z"/>
<path d="M4354 5292 c4 -3 14 -7 22 -8 9 -1 13 0 10 4 -4 3 -14 7 -22 8 -9 1
-13 0 -10 -4z"/>
<path d="M4515 5290 c3 -5 8 -10 11 -10 2 0 4 5 4 10 0 6 -5 10 -11 10 -5 0
-7 -4 -4 -10z"/>
<path d="M4293 5239 c-2 -23 3 -25 10 -4 4 8 3 16 -1 19 -4 3 -9 -4 -9 -15z"/>
<path d="M4556 5243 c-6 -14 -5 -15 5 -6 7 7 10 15 7 18 -3 3 -9 -2 -12 -12z"/>
<path d="M4676 4657 c3 -10 9 -15 12 -12 3 3 0 11 -7 18 -10 9 -11 8 -5 -6z"/>
<path d="M4635 4639 c-4 -6 -5 -12 -2 -15 2 -3 7 2 10 11 7 17 1 20 -8 4z"/>
<path d="M4653 4575 c0 -8 4 -12 9 -9 5 3 6 10 3 15 -9 13 -12 11 -12 -6z"/>
<path d="M4655 4531 c-3 -5 -2 -12 3 -15 5 -3 9 1 9 9 0 17 -3 19 -12 6z"/>
<path d="M4730 4490 c0 -5 5 -10 11 -10 5 0 7 5 4 10 -3 6 -8 10 -11 10 -2 0
-4 -4 -4 -10z"/>
<path d="M7630 5170 c0 -5 5 -10 11 -10 5 0 7 5 4 10 -3 6 -8 10 -11 10 -2 0
-4 -4 -4 -10z"/>
<path d="M8285 5170 c-3 -6 1 -7 9 -4 18 7 21 14 7 14 -6 0 -13 -4 -16 -10z"/>
<path d="M6605 5150 c-3 -6 1 -7 9 -4 18 7 21 14 7 14 -6 0 -13 -4 -16 -10z"/>
<path d="M6454 5110 c0 -16 3 -27 6 -25 8 5 6 42 -1 50 -3 2 -5 -8 -5 -25z"/>
<path d="M6491 5077 c2 -1 13 -9 24 -17 19 -14 19 -14 6 3 -7 9 -18 17 -24 17
-6 0 -8 -1 -6 -3z"/>
<path d="M8665 5030 c-3 -6 1 -7 9 -4 18 7 21 14 7 14 -6 0 -13 -4 -16 -10z"/>
<path d="M8835 5009 c-3 -4 2 -6 10 -5 21 3 28 13 10 13 -9 0 -18 -4 -20 -8z"/>
<path d="M8955 4790 c-3 -5 -1 -10 4 -10 6 0 11 5 11 10 0 6 -2 10 -4 10 -3 0
-8 -4 -11 -10z"/>
<path d="M8930 4670 c0 -5 5 -10 11 -10 5 0 7 5 4 10 -3 6 -8 10 -11 10 -2 0
-4 -4 -4 -10z"/>
<path d="M6745 4510 c-3 -6 1 -7 9 -4 18 7 21 14 7 14 -6 0 -13 -4 -16 -10z"/>
<path d="M8875 4510 c-3 -5 -1 -10 4 -10 6 0 11 5 11 10 0 6 -2 10 -4 10 -3 0
-8 -4 -11 -10z"/>
<path d="M6926 3848 c3 -5 10 -6 15 -3 13 9 11 12 -6 12 -8 0 -12 -4 -9 -9z"/>
<path d="M7036 3748 c3 -5 10 -6 15 -3 13 9 11 12 -6 12 -8 0 -12 -4 -9 -9z"/>
<path d="M7053 3685 c0 -8 4 -12 9 -9 5 3 6 10 3 15 -9 13 -12 11 -12 -6z"/>
<path d="M7350 3670 c0 -5 5 -10 11 -10 5 0 7 5 4 10 -3 6 -8 10 -11 10 -2 0
-4 -4 -4 -10z"/>
<path d="M7126 3648 c3 -5 10 -6 15 -3 13 9 11 12 -6 12 -8 0 -12 -4 -9 -9z"/>
<path d="M8413 3535 c0 -8 4 -12 9 -9 5 3 6 10 3 15 -9 13 -12 11 -12 -6z"/>
<path d="M8076 3332 c-3 -5 1 -9 9 -9 8 0 12 4 9 9 -3 4 -7 8 -9 8 -2 0 -6 -4
-9 -8z"/>
<path d="M7456 3248 c3 -5 10 -6 15 -3 13 9 11 12 -6 12 -8 0 -12 -4 -9 -9z"/>
<path d="M7375 3210 c-3 -5 -1 -10 4 -10 6 0 11 5 11 10 0 6 -2 10 -4 10 -3 0
-8 -4 -11 -10z"/>
<path d="M7354 3172 c4 -3 14 -7 22 -8 9 -1 13 0 10 4 -4 3 -14 7 -22 8 -9 1
-13 0 -10 -4z"/>
<path d="M7416 3172 c-3 -5 1 -9 9 -9 8 0 12 4 9 9 -3 4 -7 8 -9 8 -2 0 -6 -4
-9 -8z"/>
<path d="M7330 3129 c0 -5 5 -7 10 -4 6 3 10 8 10 11 0 2 -4 4 -10 4 -5 0 -10
-5 -10 -11z"/>
<path d="M7414 3086 c1 -8 5 -18 8 -22 4 -3 5 1 4 10 -1 8 -5 18 -8 22 -4 3
-5 -1 -4 -10z"/>
<path d="M7490 3031 c0 -6 4 -13 10 -16 6 -3 7 1 4 9 -7 18 -14 21 -14 7z"/>
<path d="M7693 3005 c0 -8 4 -12 9 -9 5 3 6 10 3 15 -9 13 -12 11 -12 -6z"/>
<path d="M7533 2959 c-2 -23 3 -25 10 -4 4 8 3 16 -1 19 -4 3 -9 -4 -9 -15z"/>
<path d="M7566 2968 c3 -5 10 -6 15 -3 13 9 11 12 -6 12 -8 0 -12 -4 -9 -9z"/>
<path d="M5974 5152 c4 -3 14 -7 22 -8 9 -1 13 0 10 4 -4 3 -14 7 -22 8 -9 1
-13 0 -10 -4z"/>
<path d="M6055 5130 c3 -5 8 -10 11 -10 2 0 4 5 4 10 0 6 -5 10 -11 10 -5 0
-7 -4 -4 -10z"/>
<path d="M6099 5118 c-5 -18 -6 -38 -1 -34 7 8 12 36 6 36 -2 0 -4 -1 -5 -2z"/>
<path d="M6130 5090 c0 -5 5 -10 11 -10 5 0 7 5 4 10 -3 6 -8 10 -11 10 -2 0
-4 -4 -4 -10z"/>
<path d="M5975 5030 c-3 -5 -1 -10 4 -10 6 0 11 5 11 10 0 6 -2 10 -4 10 -3 0
-8 -4 -11 -10z"/>
<path d="M6120 5010 c-12 -7 -10 -9 7 -7 12 0 19 5 17 9 -6 10 -6 10 -24 -2z"/>
<path d="M5575 4891 c-3 -5 -2 -12 3 -15 5 -3 9 1 9 9 0 17 -3 19 -12 6z"/>
<path d="M5475 4521 c-3 -5 -2 -12 3 -15 5 -3 9 1 9 9 0 17 -3 19 -12 6z"/>
<path d="M5533 4501 c0 -11 5 -18 9 -15 4 3 5 11 1 19 -7 21 -12 19 -10 -4z"/>
<path d="M5614 4466 c1 -8 5 -18 8 -22 4 -3 5 1 4 10 -1 8 -5 18 -8 22 -4 3
-5 -1 -4 -10z"/>
<path d="M5530 4450 c0 -5 5 -10 11 -10 5 0 7 5 4 10 -3 6 -8 10 -11 10 -2 0
-4 -4 -4 -10z"/>
<path d="M5579 4458 c-5 -18 -6 -38 -1 -34 7 8 12 36 6 36 -2 0 -4 -1 -5 -2z"/>
<path d="M4093 4735 c0 -8 4 -12 9 -9 5 3 6 10 3 15 -9 13 -12 11 -12 -6z"/>
<path d="M4065 4510 c-3 -6 1 -7 9 -4 18 7 21 14 7 14 -6 0 -13 -4 -16 -10z"/>
<path d="M3690 4496 c0 -2 7 -7 16 -10 8 -3 12 -2 9 4 -6 10 -25 14 -25 6z"/>
<path d="M3655 4290 c-3 -5 -1 -10 4 -10 6 0 11 5 11 10 0 6 -2 10 -4 10 -3 0
-8 -4 -11 -10z"/>
<path d="M6333 4695 c0 -8 4 -12 9 -9 5 3 6 10 3 15 -9 13 -12 11 -12 -6z"/>
<path d="M6096 4472 c-3 -5 1 -9 9 -9 8 0 12 4 9 9 -3 4 -7 8 -9 8 -2 0 -6 -4
-9 -8z"/>
<path d="M6453 4395 c0 -8 4 -12 9 -9 5 3 6 10 3 15 -9 13 -12 11 -12 -6z"/>
<path d="M6100 4396 c0 -2 8 -10 18 -17 15 -13 16 -12 3 4 -13 16 -21 21 -21
13z"/>
<path d="M6055 4381 c-3 -5 -2 -12 3 -15 5 -3 9 1 9 9 0 17 -3 19 -12 6z"/>
<path d="M6559 4263 c-13 -16 -12 -17 4 -4 9 7 17 15 17 17 0 8 -8 3 -21 -13z"/>
<path d="M6533 4221 c0 -11 5 -18 9 -15 4 3 5 11 1 19 -7 21 -12 19 -10 -4z"/>
<path d="M4815 4210 c-3 -5 -1 -10 4 -10 6 0 11 5 11 10 0 6 -2 10 -4 10 -3 0
-8 -4 -11 -10z"/>
<path d="M4850 4086 c0 -2 8 -10 18 -17 15 -13 16 -12 3 4 -13 16 -21 21 -21
13z"/>
<path d="M3509 3953 c-13 -16 -12 -17 4 -4 16 13 21 21 13 21 -2 0 -10 -8 -17
-17z"/>
<path d="M3479 3863 c-13 -16 -12 -17 4 -4 16 13 21 21 13 21 -2 0 -10 -8 -17
-17z"/>
<path d="M3133 3725 c0 -8 4 -12 9 -9 5 3 6 10 3 15 -9 13 -12 11 -12 -6z"/>
<path d="M2775 3410 c3 -5 8 -10 11 -10 2 0 4 5 4 10 0 6 -5 10 -11 10 -5 0
-7 -4 -4 -10z"/>
<path d="M2695 3370 c-3 -5 -1 -10 4 -10 6 0 11 5 11 10 0 6 -2 10 -4 10 -3 0
-8 -4 -11 -10z"/>
<path d="M2773 3319 c-2 -23 3 -25 10 -4 4 8 3 16 -1 19 -4 3 -9 -4 -9 -15z"/>
<path d="M2750 3269 c0 -5 5 -7 10 -4 6 3 10 8 10 11 0 2 -4 4 -10 4 -5 0 -10
-5 -10 -11z"/>
<path d="M4959 2843 c-13 -16 -12 -17 4 -4 9 7 17 15 17 17 0 8 -8 3 -21 -13z"/>
<path d="M3715 2581 c-3 -5 -2 -12 3 -15 5 -3 9 1 9 9 0 17 -3 19 -12 6z"/>
<path d="M3900 2490 c-8 -5 -10 -10 -5 -10 6 0 17 5 25 10 8 5 11 10 5 10 -5
0 -17 -5 -25 -10z"/>
<path d="M4235 2391 c-3 -5 -2 -12 3 -15 5 -3 9 1 9 9 0 17 -3 19 -12 6z"/>
<path d="M4895 2350 c3 -5 8 -10 11 -10 2 0 4 5 4 10 0 6 -5 10 -11 10 -5 0
-7 -4 -4 -10z"/>
<path d="M4814 2292 c4 -3 14 -7 22 -8 9 -1 13 0 10 4 -4 3 -14 7 -22 8 -9 1
-13 0 -10 -4z"/>
<path d="M4816 2252 c-3 -5 1 -9 9 -9 8 0 12 4 9 9 -3 4 -7 8 -9 8 -2 0 -6 -4
-9 -8z"/>
<path d="M5630 4150 c0 -5 5 -10 11 -10 5 0 7 5 4 10 -3 6 -8 10 -11 10 -2 0
-4 -4 -4 -10z"/>
<path d="M5980 4116 c0 -2 8 -10 18 -17 15 -13 16 -12 3 4 -13 16 -21 21 -21
13z"/>
<path d="M5475 4039 c-4 -6 -5 -12 -2 -15 2 -3 7 2 10 11 7 17 1 20 -8 4z"/>
<path d="M5436 3785 c-9 -26 -7 -32 5 -12 6 10 9 21 6 23 -2 3 -7 -2 -11 -11z"/>
<path d="M6709 3593 c-13 -16 -12 -17 4 -4 9 7 17 15 17 17 0 8 -8 3 -21 -13z"/>
<path d="M6736 3568 c3 -5 10 -6 15 -3 13 9 11 12 -6 12 -8 0 -12 -4 -9 -9z"/>
<path d="M5439 3543 c-13 -16 -12 -17 4 -4 9 7 17 15 17 17 0 8 -8 3 -21 -13z"/>
<path d="M6776 3452 c-2 -4 -1 -14 4 -22 7 -11 9 -9 7 8 -1 24 -3 26 -11 14z"/>
<path d="M6556 3052 c-3 -4 4 -9 15 -9 23 -2 25 3 4 10 -8 4 -16 3 -19 -1z"/>
<path d="M6975 2970 c3 -5 8 -10 11 -10 2 0 4 5 4 10 0 6 -5 10 -11 10 -5 0
-7 -4 -4 -10z"/>
<path d="M5393 2905 c0 -8 4 -12 9 -9 5 3 6 10 3 15 -9 13 -12 11 -12 -6z"/>
<path d="M6869 2873 c-13 -16 -12 -17 4 -4 16 13 21 21 13 21 -2 0 -10 -8 -17
-17z"/>
<path d="M7155 2851 c-3 -5 -2 -12 3 -15 5 -3 9 1 9 9 0 17 -3 19 -12 6z"/>
<path d="M6717 2763 c-10 -9 -9 -23 1 -23 5 0 9 7 9 15 0 17 -1 18 -10 8z"/>
<path d="M7216 2752 c-3 -5 1 -9 9 -9 8 0 12 4 9 9 -3 4 -7 8 -9 8 -2 0 -6 -4
-9 -8z"/>
<path d="M7136 2728 c3 -5 10 -6 15 -3 13 9 11 12 -6 12 -8 0 -12 -4 -9 -9z"/>
<path d="M7035 2690 c-3 -5 -1 -10 4 -10 6 0 11 5 11 10 0 6 -2 10 -4 10 -3 0
-8 -4 -11 -10z"/>
<path d="M7096 2688 c3 -5 10 -6 15 -3 13 9 11 12 -6 12 -8 0 -12 -4 -9 -9z"/>
<path d="M5510 2249 c0 -5 5 -7 10 -4 6 3 10 8 10 11 0 2 -4 4 -10 4 -5 0 -10
-5 -10 -11z"/>
<path d="M5550 2215 c0 -5 5 -17 10 -25 5 -8 10 -10 10 -5 0 6 -5 17 -10 25
-5 8 -10 11 -10 5z"/>
<path d="M5913 2175 c0 -8 4 -12 9 -9 5 3 6 10 3 15 -9 13 -12 11 -12 -6z"/>
<path d="M5455 9689 c-3 -4 2 -6 10 -5 21 3 28 13 10 13 -9 0 -18 -4 -20 -8z"/>
<path d="M5406 9648 c3 -5 10 -6 15 -3 13 9 11 12 -6 12 -8 0 -12 -4 -9 -9z"/>
<path d="M5236 9632 c-3 -5 1 -9 9 -9 8 0 12 4 9 9 -3 4 -7 8 -9 8 -2 0 -6 -4
-9 -8z"/>
<path d="M6320 9630 c-9 -6 -10 -10 -3 -10 6 0 15 5 18 10 8 12 4 12 -15 0z"/>
<path d="M6250 9609 c0 -5 5 -7 10 -4 6 3 10 8 10 11 0 2 -4 4 -10 4 -5 0 -10
-5 -10 -11z"/>
<path d="M4920 9590 c-9 -6 -10 -10 -3 -10 6 0 15 5 18 10 8 12 4 12 -15 0z"/>
<path d="M6396 9592 c-3 -5 1 -9 9 -9 8 0 12 4 9 9 -3 4 -7 8 -9 8 -2 0 -6 -4
-9 -8z"/>
<path d="M4115 9319 c-4 -6 -5 -12 -2 -15 2 -3 7 2 10 11 7 17 1 20 -8 4z"/>
<path d="M3985 9270 c-3 -6 1 -7 9 -4 18 7 21 14 7 14 -6 0 -13 -4 -16 -10z"/>
<path d="M7276 9223 c-6 -14 -5 -15 5 -6 7 7 10 15 7 18 -3 3 -9 -2 -12 -12z"/>
<path d="M8255 8271 c-3 -5 -2 -12 3 -15 5 -3 9 1 9 9 0 17 -3 19 -12 6z"/>
<path d="M8345 8170 c-3 -6 1 -7 9 -4 18 7 21 14 7 14 -6 0 -13 -4 -16 -10z"/>
<path d="M8420 8076 c0 -2 8 -10 18 -17 15 -13 16 -12 3 4 -13 16 -21 21 -21
13z"/>
<path d="M2393 7795 c0 -8 4 -12 9 -9 5 3 6 10 3 15 -9 13 -12 11 -12 -6z"/>
<path d="M8635 7741 c-3 -5 -2 -12 3 -15 5 -3 9 1 9 9 0 17 -3 19 -12 6z"/>
<path d="M8945 7250 c-3 -6 1 -7 9 -4 18 7 21 14 7 14 -6 0 -13 -4 -16 -10z"/>
<path d="M1956 7217 c3 -10 9 -15 12 -12 3 3 0 11 -7 18 -10 9 -11 8 -5 -6z"/>
<path d="M1790 7149 c0 -5 5 -7 10 -4 6 3 10 8 10 11 0 2 -4 4 -10 4 -5 0 -10
-5 -10 -11z"/>
<path d="M1835 5990 c3 -5 8 -10 11 -10 2 0 4 5 4 10 0 6 -5 10 -11 10 -5 0
-7 -4 -4 -10z"/>
<path d="M1756 5872 c-3 -5 1 -9 9 -9 8 0 12 4 9 9 -3 4 -7 8 -9 8 -2 0 -6 -4
-9 -8z"/>
<path d="M1700 5756 c0 -2 8 -10 18 -17 15 -13 16 -12 3 4 -13 16 -21 21 -21
13z"/>
<path d="M1670 5150 c0 -5 5 -10 11 -10 5 0 7 5 4 10 -3 6 -8 10 -11 10 -2 0
-4 -4 -4 -10z"/>
<path d="M9590 5066 c0 -2 8 -10 18 -17 15 -13 16 -12 3 4 -13 16 -21 21 -21
13z"/>
<path d="M1710 4072 c0 -5 7 -9 15 -9 8 0 12 4 9 9 -3 4 -9 8 -15 8 -5 0 -9
-4 -9 -8z"/>
<path d="M1750 3956 c0 -2 7 -7 16 -10 8 -3 12 -2 9 4 -6 10 -25 14 -25 6z"/>
<path d="M1985 3350 c-3 -6 1 -7 9 -4 18 7 21 14 7 14 -6 0 -13 -4 -16 -10z"/>
<path d="M2295 2919 c-4 -6 -5 -12 -2 -15 2 -3 7 2 10 11 7 17 1 20 -8 4z"/>
<path d="M8355 2819 c-4 -6 -5 -12 -2 -15 2 -3 7 2 10 11 7 17 1 20 -8 4z"/>
<path d="M2946 2272 c-3 -5 1 -9 9 -9 8 0 12 4 9 9 -3 4 -7 8 -9 8 -2 0 -6 -4
-9 -8z"/>
<path d="M7399 2143 c-13 -16 -12 -17 4 -4 16 13 21 21 13 21 -2 0 -10 -8 -17
-17z"/>
<path d="M3971 1797 c-13 -21 -12 -21 5 -5 10 10 16 20 13 22 -3 3 -11 -5 -18
-17z"/>
<path d="M6450 1676 c0 -2 7 -7 16 -10 8 -3 12 -2 9 4 -6 10 -25 14 -25 6z"/>
<path d="M6336 1583 c-6 -14 -5 -15 5 -6 7 7 10 15 7 18 -3 3 -9 -2 -12 -12z"/>
</g>
</svg>
